<?xml version="1.0" encoding="UTF-8"?>
<svg version="1.1" xmlns="http://www.w3.org/2000/svg" width="160" height="160">
<path d="M0 0 C3 0.3125 3 0.3125 6 2.3125 C6 2.9725 6 3.6325 6 4.3125 C7.2375 3.9825 8.475 3.6525 9.75 3.3125 C19.60583791 1.18733495 27.74022914 2.09662752 37.1875 5.53515625 C40.11799779 6.34511328 41.19541192 6.21951572 44 5.3125 C46.33746522 5.61550475 48.67085177 5.95108045 51 6.3125 C52.9996695 6.34885763 55.00059462 6.36126598 57 6.3125 C55.94434467 9.59676103 54.38339648 10.88401556 51.5 12.5625 C48 14.3125 48 14.3125 46 14.3125 C47.98469846 23.02513735 50.63238856 31.33175884 53.7109375 39.71484375 C54.3859581 41.57418297 54.3859581 41.57418297 55.07461548 43.47108459 C56.2608278 46.73780487 57.45435016 50.00180689 58.64935303 53.26531982 C59.61343647 55.90213547 60.57215348 58.54088624 61.53059959 61.17975521 C67.63021312 77.98188903 67.63021312 77.98188903 74.08120728 94.65162659 C75 97.3125 75 97.3125 75 100.3125 C76.65 100.6425 78.3 100.9725 80 101.3125 C79.23394709 106.29184394 76.356305 109.99494657 72.8125 113.4375 C60.21925904 121.83299397 45.40589192 122.88676019 30.8125 120.125 C22.40481696 118.14835929 15.66010903 115.00171976 10 108.3125 C8.31763469 105.58867044 8 104.57365629 8 101.3125 C8.77615158 101.09481964 9.55230316 100.87713928 10.35197449 100.65286255 C13.82836426 98.89320327 14.14372791 97.51659004 15.3684082 93.86669922 C15.76264481 92.72304901 16.15688141 91.5793988 16.56306458 90.40109253 C16.97151108 89.15240387 17.37995758 87.90371521 17.80078125 86.6171875 C18.2436268 85.30933989 18.68817306 84.00206704 19.13432312 82.69534302 C20.31067542 79.23476502 21.46357372 75.76680337 22.61181641 72.29681396 C23.7526677 68.86243419 24.91528788 65.43546096 26.07617188 62.0078125 C28.31640492 55.38107949 30.53235926 48.74647961 32.73834229 42.10827637 C33.97316225 38.39324306 35.21131613 34.67933874 36.45068359 30.96582031 C38.30286125 25.41551295 40.15261005 19.86440267 42 14.3125 C39.00279236 13.94800568 39.00279236 13.94800568 36.00558472 13.58351135 C33.67567508 13.26867451 31.41381052 12.78458377 29.125 12.25 C21.85818701 10.75421975 14.25154762 10.650687 7 12.3125 C4.35289717 16.28315424 4.71227929 19.7256529 4.7253418 24.33520508 C4.7176754 25.72127457 4.7176754 25.72127457 4.70985413 27.13534546 C4.69591823 30.20097278 4.69691955 33.26637594 4.69921875 36.33203125 C4.69533069 38.46896956 4.69099579 40.60590709 4.68623352 42.74284363 C4.67876031 47.2328033 4.67906813 51.72268439 4.68432617 56.21264648 C4.69008677 61.93402762 4.67327815 67.65508144 4.6499815 73.37640858 C4.63515193 77.79741767 4.63438554 82.21834993 4.63749123 86.6393795 C4.63698146 88.74624969 4.63180923 90.85312458 4.62167931 92.95997047 C4.55682361 108.35203282 4.77025134 122.72453369 13 136.3125 C14.54905483 137.86155483 16.1431642 137.58228422 18.296875 137.7421875 C19.1734375 137.81566406 20.05 137.88914063 20.953125 137.96484375 C22.80157523 138.11199691 24.65054829 138.25273858 26.5 138.38671875 C32.85823101 138.93516265 36.73672787 139.92349053 41.25 144.6875 C43.02137085 147.34455627 43.64086121 149.17003556 44 152.3125 C31.48811193 157.07168238 15.90112947 155.47395807 2.65209961 155.44287109 C-0.06337036 155.43749828 -2.77867552 155.44286221 -5.49414062 155.44921875 C-33.98745099 155.46408005 -33.98745099 155.46408005 -44 152.3125 C-43.56562648 147.38960011 -41.356381 144.82499175 -38 141.3125 C-35.07297825 139.51715869 -32.81974362 139.05820433 -29.41015625 138.9609375 C-28.10981445 138.88939453 -28.10981445 138.88939453 -26.78320312 138.81640625 C-24.97425774 138.73069886 -23.16406681 138.66806741 -21.35351562 138.62890625 C-16.32538009 138.36152919 -16.32538009 138.36152919 -12.31884766 135.6027832 C-11.00789768 133.55457333 -9.96257611 131.54366884 -9 129.3125 C-8.63390625 128.48621094 -8.2678125 127.65992188 -7.890625 126.80859375 C-7.67921875 126.12925781 -7.4678125 125.44992188 -7.25 124.75 C-7.02828125 124.06808594 -6.8065625 123.38617188 -6.578125 122.68359375 C-5.01782413 116.28425169 -4.85143278 110.00346587 -4.85473633 103.46166992 C-4.85137772 102.49825684 -4.8480191 101.53484375 -4.84455872 100.54223633 C-4.83510239 97.37580051 -4.83310889 94.20941778 -4.83203125 91.04296875 C-4.82881712 88.83815998 -4.82545293 86.63335142 -4.82194519 84.42854309 C-4.81596881 79.8179983 -4.81410397 75.20747222 -4.81469727 70.59692383 C-4.8147993 64.6772565 -4.80109829 58.75770802 -4.78392506 52.83806896 C-4.77283705 48.29060814 -4.770777 43.74317647 -4.77130699 39.19570351 C-4.77012391 37.01193135 -4.76568391 34.82815851 -4.75797462 32.64439964 C-4.74823081 29.60163227 -4.75102946 26.5591286 -4.75708008 23.51635742 C-4.75146057 22.60882217 -4.74584106 21.70128693 -4.74005127 20.76625061 C-4.53024944 16.05568159 -4.53024944 16.05568159 -7 12.3125 C-16.64154765 10.30384424 -25.37829278 11.37648142 -34.8984375 13.65625 C-38 14.3125 -38 14.3125 -42 14.3125 C-33.99179013 38.63146585 -25.70109824 62.84281188 -17.20701599 86.99635315 C-16.94518021 87.74182907 -16.68334442 88.48730499 -16.41357422 89.25537109 C-16.044711 90.29694366 -16.044711 90.29694366 -15.668396 91.35955811 C-15.05621045 93.14826243 -14.51111148 94.9595638 -13.97314453 96.77197266 C-13.22499035 99.56331737 -13.22499035 99.56331737 -10.375 100.6875 C-9.59125 100.89375 -8.8075 101.1 -8 101.3125 C-9.0842759 107.16758987 -12.27591559 111.18244214 -16.77734375 114.890625 C-28.4887964 122.38266149 -43.96525234 122.65236267 -57.1875 120.125 C-67.97767292 117.57632781 -73.90790935 113.45063598 -80 104.3125 C-80 103.3225 -80 102.3325 -80 101.3125 C-77.525 100.8175 -77.525 100.8175 -75 100.3125 C-74.8384996 99.67107056 -74.67699921 99.02964111 -74.51060486 98.36877441 C-72.52997492 90.78438104 -69.99366386 83.49621726 -67.25390625 76.15625 C-66.80152084 74.93272827 -66.34913544 73.70920654 -65.88304138 72.4486084 C-64.69025591 69.22264701 -63.49196569 65.99875937 -62.2923584 62.77532959 C-61.08166592 59.51937882 -59.87591516 56.26159988 -58.66992188 53.00390625 C-57.30759284 49.32438175 -55.94444779 45.64516748 -54.57801819 41.96716309 C-53.76702055 39.78412655 -52.9573504 37.60059624 -52.14920044 35.41650391 C-51.38111683 33.34190104 -50.609347 31.26865932 -49.83395386 29.19677734 C-49.47359039 28.22498535 -49.11322693 27.25319336 -48.74194336 26.25195312 C-48.26415688 24.97149109 -48.26415688 24.97149109 -47.77671814 23.66516113 C-46.74351235 20.53560489 -46.29124139 17.58896559 -46 14.3125 C-47.051875 13.94125 -47.051875 13.94125 -48.125 13.5625 C-51.39514548 12.14069762 -54.141122 10.44003712 -57 8.3125 C-57 7.6525 -57 6.9925 -57 6.3125 C-52 6.3125 -47 6.3125 -42 6.3125 C-40.17814121 5.87024726 -38.36614716 5.38648203 -36.5625 4.875 C-34.70868792 4.35290599 -32.85454413 3.83198769 -31 3.3125 C-30.34257813 3.11785156 -29.68515625 2.92320313 -29.0078125 2.72265625 C-22.85097419 1.46493636 -16.10782945 2.07950823 -9.9375 3 C-8.638125 3.103125 -7.33875 3.20625 -6 3.3125 C-2.77439368 0.28899934 -2.77439368 0.28899934 0 0 Z M-46 29.3125 C-46.23945847 29.98520432 -46.47891693 30.65790863 -46.72563171 31.35099792 C-49.00344043 37.74905632 -51.28284751 44.14654332 -53.5639677 50.54342175 C-54.73612739 53.83064591 -55.90770832 57.11807374 -57.07788086 60.40600586 C-58.42901258 64.20230837 -59.78281532 67.99765385 -61.13671875 71.79296875 C-61.54838791 72.95080368 -61.96005707 74.10863861 -62.38420105 75.30155945 C-64.83519106 82.16479425 -67.39458487 88.97241962 -70.07722473 95.74873352 C-71.11288692 98.17200659 -71.11288692 98.17200659 -71 100.3125 C-62.09 100.3125 -53.18 100.3125 -44 100.3125 C-43.9443168 84.53327405 -44.15902723 68.77513951 -44.5 53 C-44.54837657 50.68685312 -44.5965547 48.37370208 -44.64453125 46.06054688 C-44.76074296 40.47781477 -44.87936664 34.89513822 -45 29.3125 C-45.33 29.3125 -45.66 29.3125 -46 29.3125 Z M-42 29.3125 C-41.67 52.7425 -41.34 76.1725 -41 100.3125 C-33.08 100.3125 -25.16 100.3125 -17 100.3125 C-22.70692895 82.98949912 -28.50090242 65.70255049 -34.5625 48.5 C-34.95097107 47.39353119 -34.95097107 47.39353119 -35.34729004 46.26470947 C-36.08391261 44.16885822 -36.82439462 42.0744173 -37.56640625 39.98046875 C-37.98865479 38.78703857 -38.41090332 37.5936084 -38.84594727 36.36401367 C-40.02049227 33.10167256 -40.02049227 33.10167256 -42 29.3125 Z M45 29.3125 C44.67 52.7425 44.34 76.1725 44 100.3125 C52.91 100.3125 61.82 100.3125 71 100.3125 C68.47161867 91.8782251 68.47161867 91.8782251 65.63989258 83.57763672 C64.97954765 81.74687088 64.97954765 81.74687088 64.30586243 79.87911987 C63.83547754 78.58345439 63.36503246 77.28781075 62.89453125 75.9921875 C62.40533725 74.6389302 61.91638374 73.28558594 61.42765808 71.93215942 C60.15270679 68.40342946 58.87453393 64.87587518 57.59564209 61.34857178 C56.2863888 57.73570206 54.98024713 54.12170784 53.67382812 50.5078125 C51.11889636 43.44161619 48.56055356 36.37666138 46 29.3125 C45.67 29.3125 45.34 29.3125 45 29.3125 Z M41 30.3125 C40.59273682 31.5092334 40.18547363 32.7059668 39.76586914 33.93896484 C32.22925449 56.08175333 24.67897547 78.21860567 17 100.3125 C24.92 100.3125 32.84 100.3125 41 100.3125 C41.14409272 93.23651805 41.28704115 86.16053032 41.42724609 79.08447266 C41.47510606 76.68537121 41.52359118 74.28628214 41.57275391 71.88720703 C41.85632116 58.0271342 42.08166826 44.17568678 42 30.3125 C41.67 30.3125 41.34 30.3125 41 30.3125 Z " fill="#8A949F" transform="translate(80,4.6875)"/>
<path d="M0 0 C0 0.33 0 0.66 0 1 C-3.63 1.33 -7.26 1.66 -11 2 C-9.081875 1.938125 -9.081875 1.938125 -7.125 1.875 C-1.91127144 1.85842217 2.94007672 2.81688642 8 4 C7.67 5.32 7.34 6.64 7 8 C6.05125 7.835 5.1025 7.67 4.125 7.5 C-4.65886327 6.30777904 -12.27838698 7.27952504 -20.8984375 9.34375 C-24 10 -24 10 -28 10 C-19.99179013 34.31896585 -11.70109824 58.53031188 -3.20701599 82.68385315 C-2.94518021 83.42932907 -2.68334442 84.17480499 -2.41357422 84.94287109 C-2.044711 85.98444366 -2.044711 85.98444366 -1.668396 87.04705811 C-1.05621045 88.83576243 -0.51111148 90.6470638 0.02685547 92.45947266 C0.77500965 95.25081737 0.77500965 95.25081737 3.625 96.375 C4.40875 96.58125 5.1925 96.7875 6 97 C4.9157241 102.85508987 1.72408441 106.86994214 -2.77734375 110.578125 C-14.4887964 118.07016149 -29.96525234 118.33986267 -43.1875 115.8125 C-53.97767292 113.26382781 -59.90790935 109.13813598 -66 100 C-66 99.01 -66 98.02 -66 97 C-63.525 96.505 -63.525 96.505 -61 96 C-60.8384996 95.35857056 -60.67699921 94.71714111 -60.51060486 94.05627441 C-58.52997492 86.47188104 -55.99366386 79.18371726 -53.25390625 71.84375 C-52.80152084 70.62022827 -52.34913544 69.39670654 -51.88304138 68.1361084 C-50.69025591 64.91014701 -49.49196569 61.68625937 -48.2923584 58.46282959 C-47.08166592 55.20687882 -45.87591516 51.94909988 -44.66992188 48.69140625 C-43.30759284 45.01188175 -41.94444779 41.33266748 -40.57801819 37.65466309 C-39.76702055 35.47162655 -38.9573504 33.28809624 -38.14920044 31.10400391 C-37.38111683 29.02940104 -36.609347 26.95615932 -35.83395386 24.88427734 C-35.47359039 23.91248535 -35.11322693 22.94069336 -34.74194336 21.93945312 C-34.26415688 20.65899109 -34.26415688 20.65899109 -33.77671814 19.35266113 C-32.74351235 16.22310489 -32.29124139 13.27646559 -32 10 C-33.051875 9.62875 -33.051875 9.62875 -34.125 9.25 C-37.39514548 7.82819762 -40.141122 6.12753712 -43 4 C-43 3.34 -43 2.68 -43 2 C-38 2 -33 2 -28 2 C-26.45423792 1.49145002 -24.91319866 0.96848808 -23.375 0.4375 C-15.61093018 -1.7987193 -7.92774246 -0.77139815 0 0 Z M-32 25 C-32.23945847 25.67270432 -32.47891693 26.34540863 -32.72563171 27.03849792 C-35.00344043 33.43655632 -37.28284751 39.83404332 -39.5639677 46.23092175 C-40.73612739 49.51814591 -41.90770832 52.80557374 -43.07788086 56.09350586 C-44.42901258 59.88980837 -45.78281532 63.68515385 -47.13671875 67.48046875 C-47.54838791 68.63830368 -47.96005707 69.79613861 -48.38420105 70.98905945 C-50.83519106 77.85229425 -53.39458487 84.65991962 -56.07722473 91.43623352 C-57.11288692 93.85950659 -57.11288692 93.85950659 -57 96 C-48.09 96 -39.18 96 -30 96 C-29.9443168 80.22077405 -30.15902723 64.46263951 -30.5 48.6875 C-30.54837657 46.37435312 -30.5965547 44.06120208 -30.64453125 41.74804688 C-30.76074296 36.16531477 -30.87936664 30.58263822 -31 25 C-31.33 25 -31.66 25 -32 25 Z M-28 25 C-27.67 48.43 -27.34 71.86 -27 96 C-19.08 96 -11.16 96 -3 96 C-8.70692895 78.67699912 -14.50090242 61.39005049 -20.5625 44.1875 C-20.95097107 43.08103119 -20.95097107 43.08103119 -21.34729004 41.95220947 C-22.08391261 39.85635822 -22.82439462 37.7619173 -23.56640625 35.66796875 C-23.98865479 34.47453857 -24.41090332 33.2811084 -24.84594727 32.05151367 C-26.02049227 28.78917256 -26.02049227 28.78917256 -28 25 Z " fill="#9098A0" transform="translate(66,9)"/>
<path d="M0 0 C1.98 0 3.96 0 6 0 C8.10452902 2.10452902 7.15423861 6.79541121 7.15771484 9.70385742 C7.16279556 10.61785812 7.16787628 11.53185883 7.17311096 12.47355652 C7.18384458 14.46790279 7.19245292 16.46226134 7.19923019 18.45662498 C7.21100521 21.62367924 7.23046061 24.79059626 7.25234985 27.95759583 C7.3139692 36.96606796 7.36777411 45.97453081 7.40136719 54.9831543 C7.42245386 60.48929166 7.45788253 65.99518667 7.50212479 71.50118446 C7.51619125 73.59127231 7.52498584 75.68140313 7.52817917 77.77153587 C6.95149971 101.44722832 6.95149971 101.44722832 17 122 C18.42679217 122.19036313 19.86139073 122.32310929 21.296875 122.4296875 C22.1734375 122.50316406 23.05 122.57664062 23.953125 122.65234375 C25.80157523 122.79949691 27.65054829 122.94023858 29.5 123.07421875 C35.85823101 123.62266265 39.73672787 124.61099053 44.25 129.375 C46.02137085 132.03205627 46.64086121 133.85753556 47 137 C34.48811193 141.75918238 18.90112947 140.16145807 5.65209961 140.13037109 C2.93662964 140.12499828 0.22132448 140.13036221 -2.49414062 140.13671875 C-30.98745099 140.15158005 -30.98745099 140.15158005 -41 137 C-40.56562648 132.07710011 -38.356381 129.51249175 -35 126 C-32.11113908 124.24493732 -29.76315377 123.7042178 -26.41015625 123.47265625 C-25.54326172 123.40240234 -24.67636719 123.33214844 -23.78320312 123.25976562 C-21.97356502 123.12855712 -20.16366314 123.00093583 -18.35351562 122.87695312 C-13.49664967 122.47672141 -9.99885689 122.06384233 -6 119 C-5.67 120.65 -5.34 122.3 -5 124 C0.94 124.33 6.88 124.66 13 125 C13 123.68 13 122.36 13 121 C12.34 121 11.68 121 11 121 C8.38411497 117.44239635 7.50642192 114.35522853 7 110 C6.34 110.66 5.68 111.32 5 112 C5 111.01 5 110.02 5 109 C3.68 109 2.36 109 1 109 C1 102.4 1 95.8 1 89 C0.67 89 0.34 89 0 89 C0 59.63 0 30.26 0 0 Z " fill="#646D76" transform="translate(77,20)"/>
<path d="M0 0 C3.50555609 3.07504103 4.98788929 5.83177826 6.578125 10.19140625 C7.01640625 11.38314453 7.4546875 12.57488281 7.90625 13.80273438 C8.3496875 15.04345703 8.793125 16.28417969 9.25 17.5625 C9.71263175 18.81999659 10.17616492 20.07716194 10.640625 21.33398438 C14 30.56726656 14 30.56726656 14 34 C15.65 34.33 17.3 34.66 19 35 C18.23394709 39.97934394 15.356305 43.68244657 11.8125 47.125 C-0.78074096 55.52049397 -15.59410808 56.57426019 -30.1875 53.8125 C-38.59518304 51.83585929 -45.33989097 48.68921976 -51 42 C-52.68236531 39.27617044 -53 38.26115629 -53 35 C-50.36 34.01 -47.72 33.02 -45 32 C-45 32.99 -45 33.98 -45 35 C-36.75 35 -28.5 35 -20 35 C-19.67 32.03 -19.34 29.06 -19 26 C-18.67 26 -18.34 26 -18 26 C-18 28.97 -18 31.94 -18 35 C-8.43 35 1.14 35 11 35 C6.06020168 19.89379747 6.06020168 19.89379747 0.62890625 4.9609375 C0 3 0 3 0 0 Z " fill="#5E656C" transform="translate(141,71)"/>
<path d="M0 0 C0.33 0 0.66 0 1 0 C2.03405665 4.2654837 2 7.37316973 2 12 C10.25 12 18.5 12 27 12 C27.33 11.01 27.66 10.02 28 9 C28.495 9.99 28.495 9.99 29 11 C32.02934491 11.65772428 32.02934491 11.65772428 35 12 C33.9157241 17.85508987 30.72408441 21.86994214 26.22265625 25.578125 C14.5112036 33.07016149 -0.96525234 33.33986267 -14.1875 30.8125 C-24.97767292 28.26382781 -30.90790935 24.13813598 -37 15 C-37 14.01 -37 13.02 -37 12 C-35.02 12 -33.04 12 -31 12 C-30.67 10.35 -30.34 8.7 -30 7 C-29.67 7 -29.34 7 -29 7 C-29 8.65 -29 10.3 -29 12 C-19.76 12 -10.52 12 -1 12 C-1 9.69 -1 7.38 -1 5 C-0.71479595 3.32442621 -0.40044304 1.65182755 0 0 Z " fill="#576676" transform="translate(37,94)"/>
<path d="M0 0 C1.98 0 3.96 0 6 0 C8.10452902 2.10452902 7.15423861 6.79541121 7.15771484 9.70385742 C7.16279556 10.61785812 7.16787628 11.53185883 7.17311096 12.47355652 C7.18384458 14.46790279 7.19245292 16.46226134 7.19923019 18.45662498 C7.21100521 21.62367924 7.23046061 24.79059626 7.25234985 27.95759583 C7.3139692 36.96606796 7.36777411 45.97453081 7.40136719 54.9831543 C7.42245386 60.48929166 7.45788253 65.99518667 7.50212479 71.50118446 C7.51619125 73.59127231 7.52498584 75.68140313 7.52817917 77.77153587 C6.95149971 101.44722832 6.95149971 101.44722832 17 122 C19.34987262 122.23527773 21.70556039 122.41386417 24.0625 122.5625 C25.99802734 122.68818359 25.99802734 122.68818359 27.97265625 122.81640625 C28.97167969 122.87699219 29.97070312 122.93757813 31 123 C31 123.33 31 123.66 31 124 C24.565 124.495 24.565 124.495 18 125 C18 125.33 18 125.66 18 126 C8.43 126 -1.14 126 -11 126 C-11 125.34 -11 124.68 -11 124 C-15.62 124 -20.24 124 -25 124 C-25 123.67 -25 123.34 -25 123 C-24.04738281 122.96261719 -23.09476563 122.92523438 -22.11328125 122.88671875 C-20.85902344 122.82097656 -19.60476562 122.75523437 -18.3125 122.6875 C-17.07113281 122.62949219 -15.82976563 122.57148438 -14.55078125 122.51171875 C-10.93678801 121.99089024 -8.94233607 121.09845383 -6 119 C-5.67 120.65 -5.34 122.3 -5 124 C0.94 124.33 6.88 124.66 13 125 C13 123.68 13 122.36 13 121 C12.34 121 11.68 121 11 121 C8.38411497 117.44239635 7.50642192 114.35522853 7 110 C6.01 110.99 6.01 110.99 5 112 C5 111.01 5 110.02 5 109 C3.68 109 2.36 109 1 109 C1 102.4 1 95.8 1 89 C0.67 89 0.34 89 0 89 C0 59.63 0 30.26 0 0 Z " fill="#607589" transform="translate(77,20)"/>
<path d="M0 0 C1.02814316 0.00222061 2.05628632 0.00444122 3.11558533 0.00672913 C4.85727745 0.00684242 4.85727745 0.00684242 6.63415527 0.00695801 C8.52943214 0.01469994 8.52943214 0.01469994 10.46299744 0.02259827 C12.39193092 0.02472069 12.39193092 0.02472069 14.35983276 0.02688599 C17.78427561 0.03071034 21.20867628 0.0405399 24.63310242 0.05158997 C28.12522308 0.06180587 31.61735053 0.06638399 35.10948181 0.07142639 C41.96561897 0.08216225 48.82172806 0.09923767 55.67784119 0.12025452 C56.17284119 2.10025452 56.17284119 2.10025452 56.67784119 4.12025452 C55.02784119 5.11025452 53.37784119 6.10025452 51.67784119 7.12025452 C56.95784119 7.12025452 62.23784119 7.12025452 67.67784119 7.12025452 C63.61401361 9.15216831 60.64921747 9.54531899 56.24424744 9.73744202 C55.50292068 9.77497589 54.76159393 9.81250977 53.99780273 9.85118103 C45.44546317 10.24258713 36.88968558 10.27070984 28.3299408 10.25062561 C25.61447082 10.24525279 22.89916566 10.25061673 20.18370056 10.25697327 C9.64026151 10.2605574 -0.80838016 9.93565048 -11.32215881 9.12025452 C-11.32215881 8.79025452 -11.32215881 8.46025452 -11.32215881 8.12025452 C-8.02215881 7.79025452 -4.72215881 7.46025452 -1.32215881 7.12025452 C-1.98215881 5.14025452 -2.64215881 3.16025452 -3.32215881 1.12025452 C-2.32215881 0.12025452 -2.32215881 0.12025452 0 0 Z " fill="#8B9CAE" transform="translate(54.32215881347656,149.87974548339844)"/>
<path d="M0 0 C0.99 0.495 0.99 0.495 2 1 C3.66313784 1.10883011 5.33046481 1.15633423 6.99707031 1.17358398 C8.55944427 1.19381874 8.55944427 1.19381874 10.15338135 1.21446228 C11.28354675 1.22490067 12.41371216 1.23533905 13.578125 1.24609375 C15.959639 1.27903874 18.34114933 1.31225027 20.72265625 1.34570312 C24.48613901 1.39308422 28.24960756 1.4374959 32.01318359 1.47680664 C35.63915868 1.51657663 39.26482216 1.56811844 42.890625 1.62109375 C44.01269348 1.6295079 45.13476196 1.63792206 46.29083252 1.64659119 C51.56145313 1.72979588 56.08157703 1.85929762 61 4 C60.67 4.66 60.34 5.32 60 6 C59.01 6.33 58.02 6.66 57 7 C56.75507812 7.66515625 56.51015625 8.3303125 56.2578125 9.015625 C55.63519531 9.99789062 55.63519531 9.99789062 55 11 C51.7421875 11.609375 51.7421875 11.609375 47.875 11.75 C46.59367187 11.80671875 45.31234375 11.8634375 43.9921875 11.921875 C43.00476562 11.94765625 42.01734375 11.9734375 41 12 C41.33 11.01 41.66 10.02 42 9 C42.66 9 43.32 9 44 9 C44 8.34 44 7.68 44 7 C42.99582031 7.0721875 41.99164063 7.144375 40.95703125 7.21875 C32.29004601 7.81577587 23.69294947 8.13396669 15 8 C15 8.66 15 9.32 15 10 C22.62273755 11.99548103 30.22767795 13.69951304 38 15 C37.67 15.66 37.34 16.32 37 17 C38.27875 17.020625 39.5575 17.04125 40.875 17.0625 C41.59429687 17.07410156 42.31359375 17.08570312 43.0546875 17.09765625 C45.08185404 17.12649242 45.08185404 17.12649242 47 16 C49.00800456 16.28112064 51.01014051 16.61067967 53 17 C43.46747191 22.71951685 29.438473 20.3775753 19.2734375 17.9765625 C10.09751074 15.23911418 5.23272618 10.84908927 0 3 C0 2.01 0 1.02 0 0 Z " fill="#5F7082" transform="translate(0,106)"/>
<path d="M0 0 C0.33 0 0.66 0 1 0 C1.33 27.06 1.66 54.12 2 82 C2.33 82 2.66 82 3 82 C3.12109311 89.07721931 2.85373239 95.97195301 2 103 C3.32 103 4.64 103 6 103 C6.66 102.01 7.32 101.02 8 100 C8.18175781 100.99580078 8.18175781 100.99580078 8.3671875 102.01171875 C9.22547708 106.53424459 10.03971311 110.79938524 12 115 C12.66 115 13.32 115 14 115 C14 116.32 14 117.64 14 119 C8.06 119 2.12 119 -4 119 C-4.66 117.35 -5.32 115.7 -6 114 C-6.33 113.34 -6.66 112.68 -7 112 C-6.29296875 110.22265625 -6.29296875 110.22265625 -5.1875 108.0625 C0.19344855 96.32267869 -0.65932057 83.4405927 -0.5859375 70.80078125 C-0.56720077 68.75383241 -0.54762554 66.70689109 -0.5272522 64.65995789 C-0.47618952 59.3056789 -0.43642624 53.95137494 -0.39910889 48.59698486 C-0.35890605 43.11993362 -0.30788842 37.64298392 -0.2578125 32.16601562 C-0.16135992 21.44408202 -0.07685812 10.72209073 0 0 Z " fill="#757D83" transform="translate(76,26)"/>
<path d="M0 0 C0.66 0 1.32 0 2 0 C2.24532471 0.71313858 2.49064941 1.42627716 2.7434082 2.161026 C5.09511123 8.99700344 7.44719896 15.83284834 9.79968262 22.66855717 C11.00809421 26.17992951 12.21637453 29.6913469 13.42431641 33.20288086 C18.14633183 46.92959355 22.87032321 60.65565363 27.625 74.37109375 C28.1212085 75.80691551 28.1212085 75.80691551 28.62744141 77.27174377 C28.92827637 78.13782761 29.22911133 79.00391144 29.5390625 79.89624023 C29.79896973 80.64606674 30.05887695 81.39589325 30.32666016 82.16844177 C30.98314446 84.05889057 30.98314446 84.05889057 32 86 C22.33333333 86 12.66666667 86 3 86 C3 85.67 3 85.34 3 85 C10.59 84.67 18.18 84.34 26 84 C23.59276591 77.01853159 21.18473844 70.03733801 18.77537155 63.05660534 C17.65624461 59.81402558 16.53744519 56.57133364 15.41943359 53.32836914 C14.12959773 49.58705114 12.83826656 45.84625007 11.546875 42.10546875 C11.15191833 40.95918503 10.75696167 39.81290131 10.35003662 38.63188171 C8.23984471 32.52318869 6.08150623 26.43885045 3.81738281 20.38534546 C2.586886 16.79442095 1.8686936 13.17513724 1.25 9.4375 C1.12496094 8.74076172 0.99992187 8.04402344 0.87109375 7.32617188 C0 2.38199691 0 2.38199691 0 0 Z " fill="#A0A4AA" transform="translate(36,20)"/>
<path d="M0 0 C0.58523437 0.49628906 1.17046875 0.99257812 1.7734375 1.50390625 C4.89950253 3.60440258 7.52093341 3.51485803 11.25 3.6875 C13.14492187 3.78611328 13.14492187 3.78611328 15.078125 3.88671875 C16.04234375 3.92410156 17.0065625 3.96148437 18 4 C17.34 2.35 16.68 0.7 16 -1 C22.93 -1 29.86 -1 37 -1 C37 -0.01 37 0.98 37 2 C33.7 3.32 30.4 4.64 27 6 C29.64 6.33 32.28 6.66 35 7 C34.34 7.33 33.68 7.66 33 8 C33 8.66 33 9.32 33 10 C18.54266253 12.62860681 3.42051797 11.31320383 -9 3 C-9 2.01 -9 1.02 -9 0 C-5.84876177 -1.57561912 -3.37430208 -0.69813146 0 0 Z " fill="#4D5560" transform="translate(104,115)"/>
<path d="M0 0 C0.74889999 -0.00095673 1.49779999 -0.00191345 2.26939392 -0.00289917 C3.85724979 -0.00357971 5.44510846 -0.00173419 7.03295898 0.00244141 C9.43154387 0.00773895 11.82993697 0.00251962 14.22851562 -0.00390625 C22.02313737 -0.00695376 29.65597414 0.14988947 37.40234375 1.1328125 C37.44506475 2.79893155 37.44298207 4.46664135 37.40234375 6.1328125 C36.40234375 7.1328125 36.40234375 7.1328125 32.83984375 7.1953125 C31.70546875 7.1746875 30.57109375 7.1540625 29.40234375 7.1328125 C29.40234375 6.4728125 29.40234375 5.8128125 29.40234375 5.1328125 C20.82234375 5.1328125 12.24234375 5.1328125 3.40234375 5.1328125 C4.06234375 6.7828125 4.72234375 8.4328125 5.40234375 10.1328125 C-4.76001787 10.53133649 -4.76001787 10.53133649 -8.59765625 8.1328125 C-9.41015625 6.0078125 -9.41015625 6.0078125 -9.59765625 4.1328125 C-10.25765625 4.1328125 -10.91765625 4.1328125 -11.59765625 4.1328125 C-11.26765625 3.1428125 -10.93765625 2.1528125 -10.59765625 1.1328125 C-7.00778688 -0.06381062 -3.73576685 -0.01052144 0 0 Z " fill="#AFBDC7" transform="translate(114.59765625,107.8671875)"/>
<path d="M0 0 C1.82285408 3.12470307 2.24882029 5.38867401 2.24291992 8.98950195 C2.24599655 9.98186356 2.24907318 10.97422516 2.25224304 11.99665833 C2.24505753 13.06639389 2.23787201 14.13612946 2.23046875 15.23828125 C2.22978142 16.90772041 2.22978142 16.90772041 2.2290802 18.61088562 C2.22605764 20.97212791 2.21817123 23.33336821 2.20581055 25.69458008 C2.1877624 29.2606537 2.18529962 32.82646396 2.18554688 36.39257812 C2.16696189 47.97650634 1.96661948 59.4546969 1 71 C9.91 71 18.82 71 28 71 C25.3324082 64.21992839 25.3324082 64.21992839 22.64428711 57.44799805 C22.3169458 56.60277588 21.98960449 55.75755371 21.65234375 54.88671875 C21.31195068 54.02264404 20.97155762 53.15856934 20.62084961 52.26831055 C20 50 20 50 21 47 C22.15533757 49.85063708 23.29939512 52.70498814 24.4375 55.5625 C24.76298828 56.36236328 25.08847656 57.16222656 25.42382812 57.98632812 C25.73642578 58.77587891 26.04902344 59.56542969 26.37109375 60.37890625 C26.65911865 61.0963501 26.94714355 61.81379395 27.24389648 62.55297852 C28.20640753 65.66800862 28.5994487 68.76980301 29 72 C24.90666095 72.07408587 20.81358067 72.1285704 16.71972656 72.16479492 C15.32675378 72.17989358 13.93382862 72.20037444 12.54101562 72.22631836 C10.54057115 72.26265122 8.53978173 72.27811192 6.5390625 72.29296875 C5.33459473 72.3086792 4.13012695 72.32438965 2.88916016 72.34057617 C1.9357373 72.22818604 0.98231445 72.1157959 0 72 C-2.13172745 68.80240883 -2.24921357 68.00644206 -2.24291992 64.33935547 C-2.24599655 63.39341522 -2.24907318 62.44747498 -2.25224304 61.47286987 C-2.24505753 60.44799469 -2.23787201 59.42311951 -2.23046875 58.3671875 C-2.23001053 57.30194855 -2.22955231 56.23670959 -2.2290802 55.13919067 C-2.22605442 52.8745208 -2.21815845 50.60985307 -2.20581055 48.34521484 C-2.18782765 44.93709626 -2.18529915 41.52925431 -2.18554688 38.12109375 C-2.16998308 28.4080388 -2.09900149 18.70739811 -1.55078125 9.0078125 C-1.51228561 8.31323944 -1.47378998 7.61866638 -1.43412781 6.90304565 C-1.13014547 2.26029093 -1.13014547 2.26029093 0 0 Z " fill="#A6B2BE" transform="translate(123,34)"/>
<path d="M0 0 C0.89267578 0.00966797 1.78535156 0.01933594 2.70507812 0.02929688 C4.09823242 0.06700195 4.09823242 0.06700195 5.51953125 0.10546875 C6.45990234 0.11900391 7.40027344 0.13253906 8.36914062 0.14648438 C10.69068163 0.18183779 13.01106778 0.23118201 15.33203125 0.29296875 C15.33203125 0.95296875 15.33203125 1.61296875 15.33203125 2.29296875 C24.57203125 1.96296875 33.81203125 1.63296875 43.33203125 1.29296875 C43.33203125 0.96296875 43.33203125 0.63296875 43.33203125 0.29296875 C45.70734519 0.23857225 48.08139008 0.19911011 50.45703125 0.16796875 C51.1221875 0.15121094 51.78734375 0.13445312 52.47265625 0.1171875 C56.82719181 0.07449597 60.28803239 0.69300658 64.33203125 2.29296875 C64.33203125 2.95296875 64.33203125 3.61296875 64.33203125 4.29296875 C61.53890227 5.68953324 59.23467742 5.42792844 56.10986328 5.43823242 C54.80155548 5.44461227 53.49324768 5.45099213 52.14529419 5.45756531 C50.71014442 5.45909407 49.27499415 5.46020798 47.83984375 5.4609375 C46.37254809 5.46414992 44.90525275 5.46751399 43.43795776 5.47102356 C40.35950986 5.47701683 37.28109004 5.47886329 34.20263672 5.47827148 C30.2593257 5.47816993 26.31619501 5.49181461 22.37292671 5.50904369 C19.34116795 5.52016741 16.30945271 5.52219057 13.27767563 5.52166176 C11.82402806 5.5228416 10.37037936 5.52726365 8.91675186 5.53499413 C6.88218761 5.5447996 4.84757059 5.54065027 2.81298828 5.53588867 C1.0766362 5.5380262 1.0766362 5.5380262 -0.6947937 5.54020691 C-3.57703702 5.30053029 -5.2329962 4.79647566 -7.66796875 3.29296875 C-5.25260353 0.33098623 -3.77606574 -0.07215412 0 0 Z " fill="#333435" transform="translate(50.66796875,143.70703125)"/>
<path d="M0 0 C4.30499734 -0.04967599 8.60983993 -0.08584945 12.91503906 -0.10986328 C14.37763376 -0.11988105 15.84020863 -0.13349912 17.30273438 -0.15087891 C19.41281039 -0.17531439 21.52262012 -0.18652537 23.6328125 -0.1953125 C24.90012207 -0.20578613 26.16743164 -0.21625977 27.47314453 -0.22705078 C30.98987733 -0.00065167 33.72916487 0.72776399 37 2 C36.67 2.66 36.34 3.32 36 4 C35.01 4.33 34.02 4.66 33 5 C32.75507812 5.66515625 32.51015625 6.3303125 32.2578125 7.015625 C31.63519531 7.99789062 31.63519531 7.99789062 31 9 C27.7421875 9.609375 27.7421875 9.609375 23.875 9.75 C22.59367187 9.80671875 21.31234375 9.8634375 19.9921875 9.921875 C19.00476562 9.94765625 18.01734375 9.9734375 17 10 C17.33 9.01 17.66 8.02 18 7 C18.66 7 19.32 7 20 7 C20 6.34 20 5.68 20 5 C8.78 5 -2.44 5 -14 5 C-13.67 4.01 -13.34 3.02 -13 2 C-6.565 1.505 -6.565 1.505 0 1 C0 0.67 0 0.34 0 0 Z " fill="#9DABB9" transform="translate(24,108)"/>
<path d="M0 0 C1.3305817 3.99174511 0.25867435 5.5487618 -1.25 9.4375 C-2.92765858 13.77474086 -4.2626122 17.96592898 -5.3203125 22.49609375 C-7.16209955 30.08989598 -9.88871018 37.32172904 -12.625 44.625 C-13.13336471 45.99849366 -13.64118034 47.37219067 -14.1484375 48.74609375 C-17.79677926 58.59355853 -17.79677926 58.59355853 -19 61 C-10.09 61 -1.18 61 8 61 C8 61.33 8 61.66 8 62 C-1.24 62 -10.48 62 -20 62 C-20.33 61.34 -20.66 60.68 -21 60 C-21.33 60.66 -21.66 61.32 -22 62 C-22.99 61.67 -23.98 61.34 -25 61 C-24.34 61 -23.68 61 -23 61 C-22.8287561 60.33350937 -22.65751221 59.66701874 -22.4810791 58.98033142 C-20.68640623 52.17832948 -18.53594957 45.59841926 -16.09375 39.00390625 C-15.54479065 37.50995583 -15.54479065 37.50995583 -14.98474121 35.98582458 C-14.21728734 33.90186903 -13.44744464 31.81879175 -12.67529297 29.73657227 C-11.49515712 26.549421 -10.32730735 23.35794144 -9.16015625 20.16601562 C-8.40959074 18.13254048 -7.65831391 16.09932771 -6.90625 14.06640625 C-6.55929077 13.11536514 -6.21233154 12.16432404 -5.8548584 11.1844635 C-5.52441528 10.29931564 -5.19397217 9.41416779 -4.85351562 8.50219727 C-4.5672229 7.72707291 -4.28093018 6.95194855 -3.98596191 6.15333557 C-2.92079936 3.82702623 -1.60099801 1.98785174 0 0 Z " fill="#A0A7AD" transform="translate(28,44)"/>
<path d="M0 0 C0.495 1.485 0.495 1.485 1 3 C-2.62745155 10.2549031 -8.76662733 13.88331366 -15.75 17.375 C-18.38756926 18.10765813 -19.38251693 17.67741199 -22 17 C-23.91360971 16.78351622 -25.83083621 16.59743032 -27.75 16.4375 C-28.73484375 16.35371094 -29.7196875 16.26992187 -30.734375 16.18359375 C-31.48203125 16.12300781 -32.2296875 16.06242187 -33 16 C-33 15.67 -33 15.34 -33 15 C-30.87607494 14.3299166 -28.75082476 13.66403203 -26.625 13 C-25.44164062 12.62875 -24.25828125 12.2575 -23.0390625 11.875 C-20 11 -20 11 -18 11 C-18 10.01 -18 9.02 -18 8 C-27.9 8.495 -27.9 8.495 -38 9 C-37.67 10.32 -37.34 11.64 -37 13 C-41.62 13 -46.24 13 -51 13 C-51.33 12.34 -51.66 11.68 -52 11 C-47.71 11.33 -43.42 11.66 -39 12 C-39.66 10.35 -40.32 8.7 -41 7 C-32.42 7 -23.84 7 -15 7 C-15 7.66 -15 8.32 -15 9 C-11.535 8.505 -11.535 8.505 -8 8 C-7.67 6.35 -7.34 4.7 -7 3 C-10.3 3 -13.6 3 -17 3 C-17 2.67 -17 2.34 -17 2 C-11.39 2 -5.78 2 0 2 C0 1.34 0 0.68 0 0 Z " fill="#677383" transform="translate(159,106)"/>
<path d="M0 0 C7.92 0 15.84 0 24 0 C23.67 1.65 23.34 3.3 23 5 C23.90363281 4.97679688 24.80726562 4.95359375 25.73828125 4.9296875 C26.91777344 4.91164063 28.09726562 4.89359375 29.3125 4.875 C31.07013672 4.84019531 31.07013672 4.84019531 32.86328125 4.8046875 C36 5 36 5 39 7 C38.67 7.66 38.34 8.32 38 9 C36.865625 8.979375 35.73125 8.95875 34.5625 8.9375 C31.18424326 8.58422523 31.18424326 8.58422523 30 10 C28.5112814 10.08669432 27.018555 10.10703494 25.52734375 10.09765625 C24.62822266 10.09443359 23.72910156 10.09121094 22.80273438 10.08789062 C21.85720703 10.07951172 20.91167969 10.07113281 19.9375 10.0625 C18.98810547 10.05798828 18.03871094 10.05347656 17.06054688 10.04882812 C14.70696935 10.0370011 12.35351523 10.02052025 10 10 C10 9.67 10 9.34 10 9 C15.94 8.505 15.94 8.505 22 8 C20.37191406 7.72736328 20.37191406 7.72736328 18.7109375 7.44921875 C17.26553863 7.19580466 15.82023082 6.94187075 14.375 6.6875 C13.66214844 6.56955078 12.94929688 6.45160156 12.21484375 6.33007812 C7.69232667 5.52100397 4.05127699 4.28123957 0 2 C0 1.34 0 0.68 0 0 Z " fill="#49515B" transform="translate(15,114)"/>
<path d="M0 0 C5.51757479 -0.02467609 11.03511761 -0.04284856 16.55273438 -0.05493164 C18.43066975 -0.05996763 20.3086012 -0.06679671 22.18652344 -0.07543945 C24.88217132 -0.08753713 27.57776747 -0.09323557 30.2734375 -0.09765625 C31.11619232 -0.10281754 31.95894714 -0.10797882 32.82723999 -0.11329651 C38.77225659 -0.11387171 38.77225659 -0.11387171 41 1 C40 4 40 4 38 5 C35.40894046 5.11095217 32.84557195 5.16410192 30.25390625 5.16796875 C29.10353127 5.17296135 29.10353127 5.17296135 27.92991638 5.17805481 C26.30671794 5.18312063 24.68350907 5.18546324 23.06030273 5.18530273 C20.57583467 5.18748827 18.09181128 5.20564457 15.60742188 5.22460938 C14.03125152 5.22754355 12.45507905 5.22952818 10.87890625 5.23046875 C10.13508194 5.23765427 9.39125763 5.24483978 8.62489319 5.25224304 C4.86690616 5.23558426 3.20791073 5.13860716 0 3 C0 2.01 0 1.02 0 0 Z " fill="#C8DCE9" transform="translate(58,152)"/>
<path d="M0 0 C0.66 0 1.32 0 2 0 C2.88902912 6.04819812 3.12348383 11.89223486 3.0625 18 C3.05798828 18.87011719 3.05347656 19.74023438 3.04882812 20.63671875 C3.0371736 22.75784293 3.01924357 24.8789311 3 27 C3.66 27 4.32 27 5 27 C5 40.2 5 53.4 5 67 C4.01 67 3.02 67 2 67 C0.81017404 53.04180854 0.6708196 39.06262834 0.4375 25.0625 C0.39421344 22.6256451 0.35059628 20.18879605 0.30664062 17.75195312 C0.20061614 11.83469744 0.09867044 5.91738265 0 0 Z " fill="#ADBBC8" transform="translate(34,32)"/>
<path d="M0 0 C0.33 0 0.66 0 1 0 C1 2.64 1 5.28 1 8 C2.32 8 3.64 8 5 8 C5.66 7.01 6.32 6.02 7 5 C7.12117188 5.68707031 7.24234375 6.37414062 7.3671875 7.08203125 C7.53476563 7.98308594 7.70234375 8.88414062 7.875 9.8125 C8.11863281 11.15248047 8.11863281 11.15248047 8.3671875 12.51953125 C8.91188449 15.22727846 8.91188449 15.22727846 11 18 C11 19.32 11 20.64 11 22 C9.25008666 22.02715383 7.50005055 22.04646551 5.75 22.0625 C4.28820312 22.07990234 4.28820312 22.07990234 2.796875 22.09765625 C0.34241322 22.01195577 -1.66168914 21.70706066 -4 21 C-3.35401634 16.12689995 -2.49028264 11.36868161 -1.4375 6.5625 C-1.03337891 4.70818359 -1.03337891 4.70818359 -0.62109375 2.81640625 C-0.31365234 1.42228516 -0.31365234 1.42228516 0 0 Z " fill="#A3AEB6" transform="translate(77,121)"/>
<path d="M0 0 C3 0.3125 3 0.3125 6 2.3125 C6.1875 5.4375 6.1875 5.4375 6 8.3125 C4.95199219 8.36857422 4.95199219 8.36857422 3.8828125 8.42578125 C2.51769531 8.52439453 2.51769531 8.52439453 1.125 8.625 C-0.23238281 8.71201172 -0.23238281 8.71201172 -1.6171875 8.80078125 C-4.36221601 9.1007039 -4.36221601 9.1007039 -6 12.3125 C-6 10.9925 -6 9.6725 -6 8.3125 C-14.0125322 7.27862488 -21.92905177 7.20783352 -30 7.3125 C-29.01 6.6525 -28.02 5.9925 -27 5.3125 C-27.66 4.6525 -28.32 3.9925 -29 3.3125 C-23.69214682 0.65857341 -15.66090694 2.14337166 -9.9375 3 C-8.638125 3.103125 -7.33875 3.20625 -6 3.3125 C-2.77439368 0.28899934 -2.77439368 0.28899934 0 0 Z " fill="#4B545D" transform="translate(80,4.6875)"/>
<path d="M0 0 C1.23777525 3.71332576 0.57650048 4.81846063 -0.75 8.4375 C-2.20022945 12.56050729 -3.4489626 16.61800366 -4.4375 20.875 C-6.09168727 27.80420669 -8.52950239 34.32297944 -11 41 C-3.41 41.33 4.18 41.66 12 42 C12 42.33 12 42.66 12 43 C7.87505849 43.05784708 3.75022056 43.09354407 -0.375 43.125 C-1.550625 43.14175781 -2.72625 43.15851563 -3.9375 43.17578125 C-5.61972656 43.18544922 -5.61972656 43.18544922 -7.3359375 43.1953125 C-8.37282715 43.20578613 -9.4097168 43.21625977 -10.47802734 43.22705078 C-13 43 -13 43 -15 41 C-13.77449946 32.92859989 -10.81589129 25.34375542 -8.0625 17.6875 C-7.61491321 16.41352425 -7.16764544 15.13943637 -6.72070312 13.86523438 C-6.28822266 12.65544922 -5.85574219 11.44566406 -5.41015625 10.19921875 C-4.82439819 8.55699341 -4.82439819 8.55699341 -4.22680664 6.8815918 C-3.08641344 4.2029727 -1.85924802 2.22188043 0 0 Z " fill="#AEB4BA" transform="translate(109,63)"/>
<path d="M0 0 C2.30188562 3.45282843 3.4798815 6.980132 4.78515625 10.87890625 C5.04630722 11.64677963 5.30745819 12.41465302 5.57652283 13.20579529 C6.4093069 15.65665417 7.23616936 18.10945855 8.0625 20.5625 C8.89341534 23.01875394 9.72556366 25.47458082 10.55918884 27.92991638 C11.07740593 29.45734955 11.59386758 30.98537963 12.1084137 32.51405334 C13.38214659 36.32654495 13.38214659 36.32654495 15 40 C5.33333333 40 -4.33333333 40 -14 40 C-14 39.67 -14 39.34 -14 39 C-6.41 38.67 1.18 38.34 9 38 C8.26652344 36.01097656 7.53304687 34.02195313 6.77734375 31.97265625 C6.0712558 30.01809924 5.37165087 28.06133393 4.67260742 26.10424805 C4.18746 24.75675953 3.69572293 23.41162306 3.19702148 22.0690918 C0.36469437 14.43004706 -1.85308387 8.15535945 0 0 Z " fill="#A1A6AD" transform="translate(53,66)"/>
<path d="M0 0 C0 0.66 0 1.32 0 2 C-0.66 2.66 -1.32 3.32 -2 4 C-5.38252329 3.72721586 -8.55622504 3.41145454 -11.81787109 2.48193359 C-14.27103278 1.94014111 -16.47287179 1.88702971 -18.984375 1.90234375 C-19.91894531 1.90556641 -20.85351562 1.90878906 -21.81640625 1.91210938 C-23.26853516 1.92467773 -23.26853516 1.92467773 -24.75 1.9375 C-26.22533203 1.94426758 -26.22533203 1.94426758 -27.73046875 1.95117188 C-30.15370791 1.96293517 -32.57682273 1.97937316 -35 2 C-34.01 1.34 -33.02 0.68 -32 0 C-32.99 0 -33.98 0 -35 0 C-35 -0.99 -35 -1.98 -35 -3 C-22.25816614 -6.92056426 -12.07338644 -4.61823525 0 0 Z " fill="#A7B1BA" transform="translate(122,12)"/>
<path d="M0 0 C0.33 0 0.66 0 1 0 C1.98387679 4.05849177 2.03924323 7.83531255 2 12 C2.96679688 11.97679688 3.93359375 11.95359375 4.9296875 11.9296875 C12.5655519 11.82384384 19.55811233 12.03884372 27 14 C23.53619788 16.18091244 21.90060306 15.82528904 18 15 C16.16044845 14.89022422 14.31791831 14.82488391 12.4753418 14.79467773 C11.39459885 14.77473251 10.3138559 14.75478729 9.20036316 14.73423767 C8.0449855 14.71752518 6.88960785 14.70081268 5.69921875 14.68359375 C4.50770706 14.66281265 3.31619537 14.64203156 2.08857727 14.62062073 C-1.71172403 14.55531821 -5.51209352 14.49632982 -9.3125 14.4375 C-11.89128305 14.39429644 -14.47005924 14.35068156 -17.04882812 14.30664062 C-23.36581366 14.19965655 -29.6828668 14.09785445 -36 14 C-35.67 13.34 -35.34 12.68 -35 12 C-33.68 12 -32.36 12 -31 12 C-30.67 10.35 -30.34 8.7 -30 7 C-29.67 7 -29.34 7 -29 7 C-29 8.65 -29 10.3 -29 12 C-19.76 12 -10.52 12 -1 12 C-1 9.69 -1 7.38 -1 5 C-0.71479595 3.32442621 -0.40044304 1.65182755 0 0 Z " fill="#5C646C" transform="translate(37,94)"/>
<path d="M0 0 C0.3449145 1.33038449 0.67516582 2.66457061 1 4 C1.20265976 4.77957565 1.40531952 5.55915131 1.61412048 6.36235046 C2.04074045 9.27847821 1.718678 10.7633732 0.73657227 13.51489258 C0.43618546 14.37540726 0.13579865 15.23592194 -0.1736908 16.12251282 C-0.50695877 17.0372789 -0.84022675 17.95204498 -1.18359375 18.89453125 C-1.51794937 19.84188644 -1.85230499 20.78924164 -2.1967926 21.76530457 C-3.26559893 24.78524027 -4.35127731 27.7987904 -5.4375 30.8125 C-6.16583426 32.86092999 -6.89306118 34.90975407 -7.61914062 36.95898438 C-9.39994428 41.97729711 -11.19463205 46.99047565 -13 52 C-14.31225809 48.06322574 -13.3393954 46.2205738 -12.0625 42.3125 C-11.68222656 41.13300781 -11.30195312 39.95351562 -10.91015625 38.73828125 C-10.60980469 37.83464844 -10.30945313 36.93101563 -10 36 C-10.99 36.495 -10.99 36.495 -12 37 C-9.85879693 28.61282353 -7.18596986 20.47462092 -4.3125 12.3125 C-3.68891602 10.52682617 -3.68891602 10.52682617 -3.05273438 8.70507812 C-2.03847718 5.80220407 -1.02084668 2.90056187 0 0 Z " fill="#9CA3AB" transform="translate(119,29)"/>
<path d="M0 0 C6.88593282 0.11872298 6.88593282 0.11872298 9.83203125 2.44921875 C12.89526414 5.88510771 14.30853674 8.39024495 15 13 C6.97667603 13.90041311 -0.92970447 14.11547323 -9 14 C-9 13.67 -9 13.34 -9 13 C-6.03 12.34 -3.06 11.68 0 11 C0.33 9.68 0.66 8.36 1 7 C-0.32 6.34 -1.64 5.68 -3 5 C1.455 4.505 1.455 4.505 6 4 C6 3.34 6 2.68 6 2 C3.03 1.505 3.03 1.505 0 1 C0 0.67 0 0.34 0 0 Z " fill="#59585C" transform="translate(109,144)"/>
<path d="M0 0 C2.74325782 4.00572595 2.25301454 8.26866999 2.1953125 12.921875 C2.1924826 13.78186096 2.18965271 14.64184692 2.18673706 15.52789307 C2.1755615 18.26873821 2.15046179 21.00925398 2.125 23.75 C2.1149668 25.61067236 2.10584155 27.47134985 2.09765625 29.33203125 C2.07563076 33.88814732 2.04111897 38.44401786 2 43 C0.68 42.67 -0.64 42.34 -2 42 C-2.18979284 19.97527048 -2.18979284 19.97527048 -1.5625 9.1875 C-1.52326416 8.48375244 -1.48402832 7.78000488 -1.44360352 7.05493164 C-1.13085909 2.26171819 -1.13085909 2.26171819 0 0 Z " fill="#9EAEBD" transform="translate(123,34)"/>
<path d="M0 0 C0.33 0.99 0.66 1.98 1 3 C1.9075 2.67 2.815 2.34 3.75 2 C9.06183796 0.44478146 14.52020695 0.83803567 20 1 C20 1.33 20 1.66 20 2 C14.72 2.66 9.44 3.32 4 4 C8.29 4.33 12.58 4.66 17 5 C17 5.33 17 5.66 17 6 C15.33710937 6.14695312 15.33710937 6.14695312 13.640625 6.296875 C12.17698816 6.4469916 10.71345124 6.59808465 9.25 6.75 C8.52039063 6.811875 7.79078125 6.87375 7.0390625 6.9375 C2.23707711 7.46135295 0.16358911 8.426316 -3 12 C-6.25 11.75 -6.25 11.75 -9 11 C-9 12.98 -9 14.96 -9 17 C-9.33 17 -9.66 17 -10 17 C-10.144375 15.88625 -10.28875 14.7725 -10.4375 13.625 C-10.78372035 10.17857953 -10.78372035 10.17857953 -12 8 C-11.34 6.68 -10.68 5.36 -10 4 C-6.7 4 -3.4 4 0 4 C0 2.68 0 1.36 0 0 Z " fill="#7F8892" transform="translate(86,9)"/>
<path d="M0 0 C1.27617188 0.02320313 2.55234375 0.04640625 3.8671875 0.0703125 C5.78917969 0.09738281 5.78917969 0.09738281 7.75 0.125 C9.23113281 0.15980469 9.23113281 0.15980469 10.7421875 0.1953125 C10.7421875 0.8553125 10.7421875 1.5153125 10.7421875 2.1953125 C19.9821875 1.8653125 29.2221875 1.5353125 38.7421875 1.1953125 C38.7421875 0.8653125 38.7421875 0.5353125 38.7421875 0.1953125 C41.11750144 0.140916 43.49154633 0.10145386 45.8671875 0.0703125 C46.53234375 0.05355469 47.1975 0.03679687 47.8828125 0.01953125 C52.23734806 -0.02316028 55.69818864 0.59535033 59.7421875 2.1953125 C59.7421875 2.5253125 59.7421875 2.8553125 59.7421875 3.1953125 C52.30082866 3.21855077 44.85947773 3.23628591 37.41808987 3.24712467 C33.96222585 3.25232846 30.50638678 3.25938032 27.05053711 3.27075195 C23.07145493 3.28376238 19.09238262 3.28856142 15.11328125 3.29296875 C13.88073105 3.29813004 12.64818085 3.30329132 11.37828064 3.30860901 C5.72683807 3.30897678 0.3054491 3.22660346 -5.2578125 2.1953125 C-3.2578125 0.1953125 -3.2578125 0.1953125 0 0 Z " fill="#171717" transform="translate(55.2578125,143.8046875)"/>
<path d="M0 0 C1.02814316 0.00222061 2.05628632 0.00444122 3.11558533 0.00672913 C4.85727745 0.00684242 4.85727745 0.00684242 6.63415527 0.00695801 C8.52943214 0.01469994 8.52943214 0.01469994 10.46299744 0.02259827 C12.39193092 0.02472069 12.39193092 0.02472069 14.35983276 0.02688599 C17.78427561 0.03071034 21.20867628 0.0405399 24.63310242 0.05158997 C28.12522308 0.06180587 31.61735053 0.06638399 35.10948181 0.07142639 C41.96561897 0.08216225 48.82172806 0.09923767 55.67784119 0.12025452 C56.17284119 2.10025452 56.17284119 2.10025452 56.67784119 4.12025452 C52.84458502 6.8260824 50.3524597 7.44639069 45.67784119 7.12025452 C46.00784119 6.46025452 46.33784119 5.80025452 46.67784119 5.12025452 C47.33784119 5.12025452 47.99784119 5.12025452 48.67784119 5.12025452 C48.18284119 3.63525452 48.18284119 3.63525452 47.67784119 2.12025452 C31.83784119 1.79025452 15.99784119 1.46025452 -0.32215881 1.12025452 C0.30626092 5.09167142 0.30626092 5.09167142 2.67784119 7.12025452 C1.35784119 7.12025452 0.03784119 7.12025452 -1.32215881 7.12025452 C-1.98215881 5.14025452 -2.64215881 3.16025452 -3.32215881 1.12025452 C-2.32215881 0.12025452 -2.32215881 0.12025452 0 0 Z " fill="#8895A6" transform="translate(54.32215881347656,149.87974548339844)"/>
<path d="M0 0 C0.5775 0.309375 1.155 0.61875 1.75 0.9375 C3.84294184 1.92583364 5.74535275 2.5168613 8 3 C6.87524161 9.07369528 3.48072904 12.98877116 -1.1484375 16.83984375 C-3.80763123 18.50604741 -5.9531777 18.44587643 -9 18 C-7.125 11.125 -7.125 11.125 -6 10 C-3.67182036 9.63239269 -1.3381615 9.29758419 1 9 C1 7.68 1 6.36 1 5 C0.01 4.34 -0.98 3.68 -2 3 C-1.34 3 -0.68 3 0 3 C0 2.01 0 1.02 0 0 Z " fill="#505E6E" transform="translate(64,103)"/>
<path d="M0 0 C0 0.33 0 0.66 0 1 C-3.63 1.33 -7.26 1.66 -11 2 C-9.081875 1.938125 -9.081875 1.938125 -7.125 1.875 C-1.91127144 1.85842217 2.94007672 2.81688642 8 4 C7.67 5.32 7.34 6.64 7 8 C4.69 7.67 2.38 7.34 0 7 C0.66 6.34 1.32 5.68 2 5 C-6.36002255 4.81737815 -13.91054555 4.66650353 -22 7 C-24.203125 6.55859375 -24.203125 6.55859375 -26 6 C-25.34 5.67 -24.68 5.34 -24 5 C-25.32 5 -26.64 5 -28 5 C-28 4.34 -28 3.68 -28 3 C-18.51872509 -1.77135433 -10.21473398 -1.10170636 0 0 Z " fill="#B5C0C9" transform="translate(66,9)"/>
<path d="M0 0 C0.33 0.66 0.66 1.32 1 2 C0.01 2.33 -0.98 2.66 -2 3 C3.28 3.33 8.56 3.66 14 4 C12.68 5.32 11.36 6.64 10 8 C10.66 8 11.32 8 12 8 C12.66 9.65 13.32 11.3 14 13 C12.9790625 12.505 12.9790625 12.505 11.9375 12 C8.49159762 10.82692685 5.61602578 10.85819507 2 11 C1.67 11.66 1.34 12.32 1 13 C-1.65269897 10.52414762 -3.68010103 8.40973899 -5 5 C-5 4.01 -5 3.02 -5 2 C-3.35 1.34 -1.7 0.68 0 0 Z " fill="#5E6B79" transform="translate(93,104)"/>
<path d="M0 0 C0.66 0.33 1.32 0.66 2 1 C2 1.99 2 2.98 2 4 C3.0725 3.649375 4.145 3.29875 5.25 2.9375 C9.92307692 1.76923077 9.92307692 1.76923077 13 3 C11.35 3.66 9.7 4.32 8 5 C8.99 4.67 9.98 4.34 11 4 C15.37728519 2.89192601 19.69694095 2.80841396 24.1875 2.8125 C24.87650391 2.81185547 25.56550781 2.81121094 26.27539062 2.81054688 C29.96711347 2.84985854 33.41006452 3.12865644 37 4 C37 4.33 37 4.66 37 5 C35.93523437 5.03738281 34.87046875 5.07476563 33.7734375 5.11328125 C25.22726483 5.4784431 17.27747644 6.31754434 8.953125 8.37890625 C6.19661765 8.95864787 3.80446584 9.11944947 1 9 C1 8.34 1 7.68 1 7 C0.34 7 -0.32 7 -1 7 C-1 6.34 -1 5.68 -1 5 C-0.34 5 0.32 5 1 5 C1 4.34 1 3.68 1 3 C0.34 3 -0.32 3 -1 3 C-0.67 2.01 -0.34 1.02 0 0 Z " fill="#83878B" transform="translate(36,10)"/>
<path d="M0 0 C8.58 0 17.16 0 26 0 C26 0.66 26 1.32 26 2 C27.98 2 29.96 2 32 2 C27.64864349 6.35135651 20.17346853 8.64016682 14.140625 9.32421875 C12.0909223 9.31442718 10.04240509 9.17308518 8 9 C8 8.67 8 8.34 8 8 C10.12392506 7.3299166 12.24917524 6.66403203 14.375 6 C15.55835938 5.62875 16.74171875 5.2575 17.9609375 4.875 C21 4 21 4 23 4 C23 3.01 23 2.02 23 1 C13.1 1.495 13.1 1.495 3 2 C3.33 3.32 3.66 4.64 4 6 C-0.62 6 -5.24 6 -10 6 C-10.33 5.34 -10.66 4.68 -11 4 C-6.71 4.33 -2.42 4.66 2 5 C1.34 3.35 0.68 1.7 0 0 Z " fill="#727273" transform="translate(118,113)"/>
<path d="M0 0 C0.042721 1.66611905 0.04063832 3.33382885 0 5 C-1 6 -1 6 -4.5625 6.0625 C-5.696875 6.041875 -6.83125 6.02125 -8 6 C-8 5.34 -8 4.68 -8 4 C-11.3 4 -14.6 4 -18 4 C-17.34 3.67 -16.68 3.34 -16 3 C-16 2.34 -16 1.68 -16 1 C-22.27 1 -28.54 1 -35 1 C-35 0.67 -35 0.34 -35 0 C-23.21184671 -0.96991135 -11.7922094 -0.89648376 0 0 Z " fill="#8393A5" transform="translate(152,109)"/>
<path d="M0 0 C3 1 3 1 4.23828125 3.015625 C5.94221646 5.34602755 5.94221646 5.34602755 9.35546875 5.609375 C10.62003906 5.65578125 11.88460937 5.7021875 13.1875 5.75 C15.09595703 5.83507812 15.09595703 5.83507812 17.04296875 5.921875 C18.01878906 5.94765625 18.99460938 5.9734375 20 6 C20 6.33 20 6.66 20 7 C13.565 7.495 13.565 7.495 7 8 C7 8.33 7 8.66 7 9 C-2.57 9 -12.14 9 -22 9 C-22 8.34 -22 7.68 -22 7 C-26.62 7 -31.24 7 -36 7 C-36 6.67 -36 6.34 -36 6 C-35.04738281 5.96261719 -34.09476563 5.92523438 -33.11328125 5.88671875 C-31.85902344 5.82097656 -30.60476562 5.75523437 -29.3125 5.6875 C-27.45044922 5.60048828 -27.45044922 5.60048828 -25.55078125 5.51171875 C-21.93678801 4.99089024 -19.94233607 4.09845383 -17 2 C-16.67 3.65 -16.34 5.3 -16 7 C-10.06 7.33 -4.12 7.66 2 8 C2 6.68 2 5.36 2 4 C1.34 4 0.68 4 0 4 C0 2.68 0 1.36 0 0 Z " fill="#4C4E50" transform="translate(88,137)"/>
<path d="M0 0 C0 0.33 0 0.66 0 1 C3.96 1.33 7.92 1.66 12 2 C12 2.33 12 2.66 12 3 C6.31152656 3.02506445 0.62308655 3.04302899 -5.06542969 3.05493164 C-6.99316977 3.05990335 -8.9209062 3.06668307 -10.84863281 3.07543945 C-22.6131018 3.12746754 -34.26823779 2.93177588 -46 2 C-46 1.67 -46 1.34 -46 1 C-30.65339809 0.1541243 -15.36899312 -0.13154919 0 0 Z " fill="#B8BFC4" transform="translate(89,157)"/>
<path d="M0 0 C3.57294216 3.57294216 3.82160092 6.29516253 4.5 11.0625 C5.52468121 17.56456803 6.83942036 23.76343325 9 30 C8.01 30.33 7.02 30.66 6 31 C3.87491756 27.81237635 3.4979837 25.73487777 3 22 C2.34 22.66 1.68 23.32 1 24 C1 23.01 1 22.02 1 21 C0.01 21 -0.98 21 -2 21 C-2 20.34 -2 19.68 -2 19 C-1.34 19 -0.68 19 0 19 C0 12.73 0 6.46 0 0 Z " fill="#7A7E84" transform="translate(81,108)"/>
<path d="M0 0 C3.50555609 3.07504103 4.98788929 5.83177826 6.578125 10.19140625 C7.01640625 11.38314453 7.4546875 12.57488281 7.90625 13.80273438 C8.3496875 15.04345703 8.793125 16.28417969 9.25 17.5625 C9.71263175 18.81999659 10.17616492 20.07716194 10.640625 21.33398438 C14 30.56726656 14 30.56726656 14 34 C14.66 34.33 15.32 34.66 16 35 C12.535 35.495 12.535 35.495 9 36 C9.99 35.505 9.99 35.505 11 35 C9.91930154 31.72829021 8.83537644 28.45766081 7.75 25.1875 C7.431521 24.22730957 7.11304199 23.26711914 6.78491211 22.27783203 C4.84643773 16.45994577 2.84124296 10.68154037 0.62890625 4.9609375 C0 3 0 3 0 0 Z " fill="#797C83" transform="translate(141,71)"/>
<path d="M0 0 C8.25 0 16.5 0 25 0 C25.33 0.66 25.66 1.32 26 2 C25.34 2 24.68 2 24 2 C24 2.66 24 3.32 24 4 C20.56257082 4.05802698 17.12526747 4.09360486 13.6875 4.125 C12.71103516 4.14175781 11.73457031 4.15851563 10.72851562 4.17578125 C9.79072266 4.18222656 8.85292969 4.18867188 7.88671875 4.1953125 C7.02264404 4.20578613 6.15856934 4.21625977 5.26831055 4.22705078 C3 4 3 4 0 2 C0 1.34 0 0.68 0 0 Z " fill="#FAFCFD" transform="translate(66,153)"/>
<path d="M0 0 C0.99 0 1.98 0 3 0 C4.07917226 3.23751678 4.11425601 5.57751771 4.09765625 8.98046875 C4.09282227 10.72553711 4.09282227 10.72553711 4.08789062 12.50585938 C4.07951172 13.72080078 4.07113281 14.93574219 4.0625 16.1875 C4.05798828 17.41404297 4.05347656 18.64058594 4.04882812 19.90429688 C4.03703065 22.93624668 4.02056921 25.96809906 4 29 C3.01 29 2.02 29 1 29 C0.2390759 19.29821771 -0.13500337 9.73524288 0 0 Z " fill="#9EADBB" transform="translate(35,70)"/>
<path d="M0 0 C0.66 0 1.32 0 2 0 C1.85769192 1.41702513 1.71099254 2.8336096 1.5625 4.25 C1.48128906 5.03890625 1.40007812 5.8278125 1.31640625 6.640625 C1 9 1 9 0 13 C4.95 13.33 9.9 13.66 15 14 C15 13.34 15 12.68 15 12 C15.66 12 16.32 12 17 12 C17 13.32 17 14.64 17 16 C11.06 16 5.12 16 -1 16 C-1.66 14.35 -2.32 12.7 -3 11 C-3.33 10.34 -3.66 9.68 -4 9 C-3.22265625 6.8359375 -3.22265625 6.8359375 -2.0625 4.375 C-1.68222656 3.55773437 -1.30195312 2.74046875 -0.91015625 1.8984375 C-0.60980469 1.27195313 -0.30945313 0.64546875 0 0 Z " fill="#637180" transform="translate(73,129)"/>
<path d="M0 0 C2.09733845 2.09733845 2.68847755 3.40303355 3.7265625 6.1328125 C4.0359375 6.93847656 4.3453125 7.74414062 4.6640625 8.57421875 C4.98117188 9.41597656 5.29828125 10.25773437 5.625 11.125 C5.94984375 11.97449219 6.2746875 12.82398438 6.609375 13.69921875 C7.41104454 15.79770665 8.20769797 17.89796129 9 20 C9.33 18.68 9.66 17.36 10 16 C10.86343731 18.28855702 11.7159811 20.5801928 12.5625 22.875 C12.80935547 23.52597656 13.05621094 24.17695312 13.31054688 24.84765625 C13.93173115 26.54497665 14.47152252 28.27156776 15 30 C14.67 30.66 14.34 31.32 14 32 C14 32.99 14 33.98 14 35 C13.6937566 36.33981486 13.36548445 37.67511887 13 39 C11.142477 33.93019345 9.29123488 28.85815504 7.44580078 23.78393555 C6.81699393 22.05771954 6.18646895 20.33212839 5.55419922 18.60717773 C4.64619815 16.1290618 3.74437989 13.64877158 2.84375 11.16796875 C2.55939087 10.39599655 2.27503174 9.62402435 1.98205566 8.82865906 C0.87403603 5.76126164 0 3.28793881 0 0 Z " fill="#A4ACB5" transform="translate(129,42)"/>
<path d="M0 0 C1.95373655 0.23179925 3.90717636 0.46837343 5.85546875 0.7421875 C8.58001664 1.06972878 11.2594662 1.06851335 14 1 C12.94434467 4.28426103 11.38339648 5.57151556 8.5 7.25 C5 9 5 9 3 9 C3.33 11.97 3.66 14.94 4 18 C1.73431275 15.73431275 1.44719549 14.56766015 0.75 11.5 C0.46382813 10.30890625 0.46382813 10.30890625 0.171875 9.09375 C0.11515625 8.4028125 0.0584375 7.711875 0 7 C0.66 6.34 1.32 5.68 2 5 C1.34 5 0.68 5 0 5 C-0.5625 3.0625 -0.5625 3.0625 -1 1 C-0.67 0.67 -0.34 0.34 0 0 Z " fill="#A3ACB6" transform="translate(123,10)"/>
<path d="M0 0 C1.9587043 0.14076315 3.91696093 0.2877676 5.875 0.4375 C7.51082031 0.55931641 7.51082031 0.55931641 9.1796875 0.68359375 C12 1 12 1 14 2 C14 2.66 14 3.32 14 4 C13.34 4 12.68 4 12 4 C12 4.66 12 5.32 12 6 C12.66 6 13.32 6 14 6 C14.33 6.99 14.66 7.98 15 9 C14.34 9 13.68 9 13 9 C12.67 10.65 12.34 12.3 12 14 C11.67 14 11.34 14 11 14 C11 12.02 11 10.04 11 8 C10.29875 7.7525 9.5975 7.505 8.875 7.25 C5.60485452 5.82819762 2.858878 4.12753712 0 2 C0 1.34 0 0.68 0 0 Z " fill="#96A2AC" transform="translate(23,11)"/>
<path d="M0 0 C1.44826172 0.07831055 1.44826172 0.07831055 2.92578125 0.15820312 C5.2842825 0.28663636 7.64222045 0.42153189 10 0.5625 C10 0.8925 10 1.2225 10 1.5625 C-2.375 2.0575 -2.375 2.0575 -15 2.5625 C-15.33 3.2225 -15.66 3.8825 -16 4.5625 C-10.06 4.5625 -4.12 4.5625 2 4.5625 C2 4.8925 2 5.2225 2 5.5625 C-2.62 5.5625 -7.24 5.5625 -12 5.5625 C-12 6.5525 -12 7.5425 -12 8.5625 C-15.23087421 8.00545272 -17.02361137 7.23062465 -19 4.5625 C-19 3.2425 -19 1.9225 -19 0.5625 C-12.55447615 -0.46361524 -6.50333305 -0.39019998 0 0 Z " fill="#718494" transform="translate(26,108.4375)"/>
<path d="M0 0 C0 1.32 0 2.64 0 4 C-0.83917969 3.89171875 -0.83917969 3.89171875 -1.6953125 3.78125 C-9.14082655 2.91938985 -16.51172488 2.9028898 -24 3 C-23.01 2.34 -22.02 1.68 -21 1 C-21.66 0.34 -22.32 -0.32 -23 -1 C-16.4269682 -4.2865159 -6.76443487 -1.8038493 0 0 Z " fill="#8D98A3" transform="translate(74,9)"/>
<path d="M0 0 C2.125 2.4375 2.125 2.4375 4 5 C6.61818456 6.33298974 6.61818456 6.33298974 9 7 C9 7.33 9 7.66 9 8 C1.89945397 7.74319906 -3.09755529 7.06612857 -9 3 C-9 2.01 -9 1.02 -9 0 C-5.77839187 -1.61080407 -3.42436421 -0.82657067 0 0 Z " fill="#3A4858" transform="translate(104,115)"/>
<path d="M0 0 C1.91015625 0.23046875 1.91015625 0.23046875 3.91015625 2.23046875 C7.1988557 2.5127666 7.1988557 2.5127666 10.91015625 2.41796875 C12.16828125 2.41152344 13.42640625 2.40507813 14.72265625 2.3984375 C17.80649416 2.44876915 17.80649416 2.44876915 19.91015625 1.23046875 C21.91816081 1.51158939 23.92029676 1.84114842 25.91015625 2.23046875 C15.23813642 8.63368065 0.08448718 5.00752141 -11.08984375 2.23046875 C-10.45046875 2.08609375 -9.81109375 1.94171875 -9.15234375 1.79296875 C-2.78174976 0.05553402 -2.78174976 0.05553402 0 0 Z " fill="#7D8590" transform="translate(27.08984375,120.76953125)"/>
<path d="M0 0 C0.64324219 0.29648438 1.28648438 0.59296875 1.94921875 0.8984375 C5.84925579 2.3066455 9.73071254 2.95439619 13.8125 3.625 C14.99489258 3.82609375 14.99489258 3.82609375 16.20117188 4.03125 C18.13328006 4.3591229 20.0665322 4.68024237 22 5 C21.67 5.66 21.34 6.32 21 7 C17.68418913 7.08087344 14.66119944 6.9474275 11.375 6.4375 C8.23755626 6.03079433 6.92489673 6.24518794 4 7 C1.99053778 6.72949547 -0.01354224 6.40632091 -2 6 C-1.49396008 3.83125748 -1.00016187 2.00032373 0 0 Z " fill="#616971" transform="translate(16,116)"/>
<path d="M0 0 C0.33 0 0.66 0 1 0 C1.33 2.31 1.66 4.62 2 7 C2.33 7 2.66 7 3 7 C3.41136629 14.87690257 2.436168 21.50298299 0 29 C-0.66 28.67 -1.32 28.34 -2 28 C-1.34 18.76 -0.68 9.52 0 0 Z " fill="#737E88" transform="translate(76,101)"/>
<path d="M0 0 C0.66 0 1.32 0 2 0 C3.22334991 3.40790332 4.19868173 6.77362257 4.9375 10.3125 C5.78981382 14.37473763 7.04474714 18.17520809 8.51171875 22.0546875 C9 24 9 24 8 27 C2.9464219 22.86525429 2.46777311 15.83830735 1.375 9.75 C1.2409375 9.03070313 1.106875 8.31140625 0.96875 7.5703125 C0 2.29161352 0 2.29161352 0 0 Z " fill="#79808A" transform="translate(36,20)"/>
<path d="M0 0 C4.29 0.33 8.58 0.66 13 1 C13.66 2.65 14.32 4.3 15 6 C4.83763838 6.39852399 4.83763838 6.39852399 1 4 C0.67 2.68 0.34 1.36 0 0 Z " fill="#798590" transform="translate(105,112)"/>
<path d="M0 0 C1.48168945 1.09887695 1.48168945 1.09887695 3 3 C3.34057617 5.91088867 3.34057617 5.91088867 3.29296875 9.41796875 C3.28330078 10.67158203 3.27363281 11.92519531 3.26367188 13.21679688 C3.23853516 14.52712891 3.21339844 15.83746094 3.1875 17.1875 C3.17244967 18.52277163 3.15876187 19.85805937 3.14648438 21.19335938 C3.11107694 24.46264576 3.0616889 27.73112093 3 31 C2.34 31 1.68 31 1 31 C0.67 22.09 0.34 13.18 0 4 C-0.66 3.67 -1.32 3.34 -2 3 C-1.34 2.01 -0.68 1.02 0 0 Z " fill="#98A8B7" transform="translate(36,28)"/>
<path d="M0 0 C0.33 0 0.66 0 1 0 C2.26693763 9.66039945 2.08984092 19.27721582 2 29 C0.68 28.67 -0.64 28.34 -2 28 C-2 25.03 -2 22.06 -2 19 C-1.34 19 -0.68 19 0 19 C0 12.73 0 6.46 0 0 Z " fill="#AFBECC" transform="translate(123,48)"/>
<path d="M0 0 C0.76166977 0.00222061 1.52333954 0.00444122 2.30809021 0.00672913 C3.16890701 0.00680466 4.02972382 0.00688019 4.91662598 0.00695801 C5.8520372 0.01211929 6.78744843 0.01728058 7.75120544 0.02259827 C8.70422043 0.02401321 9.65723541 0.02542816 10.63912964 0.02688599 C13.69605085 0.032503 16.75289996 0.04505836 19.80979919 0.05775452 C21.87685543 0.06276733 23.94391281 0.06733061 26.01097107 0.07142639 C31.08977507 0.08247795 36.16852489 0.09975397 41.24729919 0.12025452 C41.24729919 0.45025452 41.24729919 0.78025452 41.24729919 1.12025452 C27.71729919 1.12025452 14.18729919 1.12025452 0.24729919 1.12025452 C0.87571893 5.09167142 0.87571893 5.09167142 3.24729919 7.12025452 C1.92729919 7.12025452 0.60729919 7.12025452 -0.75270081 7.12025452 C-1.41270081 5.14025452 -2.07270081 3.16025452 -2.75270081 1.12025452 C-1.75270081 0.12025452 -1.75270081 0.12025452 0 0 Z " fill="#718AA5" transform="translate(53.75270080566406,149.87974548339844)"/>
<path d="M0 0 C2 4 2 4 3 7 C2.34 8.32 1.68 9.64 1 11 C9.91 11 18.82 11 28 11 C28 11.33 28 11.66 28 12 C18.76 12 9.52 12 0 12 C-0.33 11.34 -0.66 10.68 -1 10 C-1.33 10.66 -1.66 11.32 -2 12 C-2.99 11.67 -3.98 11.34 -5 11 C-4.34 11 -3.68 11 -3 11 C-2.01 7.37 -1.02 3.74 0 0 Z " fill="#B6BAC0" transform="translate(8,94)"/>
<path d="M0 0 C3.68748309 -0.02925502 7.37493592 -0.04688418 11.0625 -0.0625 C12.10083984 -0.07087891 13.13917969 -0.07925781 14.20898438 -0.08789062 C19.58723069 -0.10496442 24.70333211 0.04584848 30 1 C30 1.99 30 2.98 30 4 C23.25 4.125 23.25 4.125 21 3 C19.4087658 2.78058781 17.81070969 2.60940148 16.2109375 2.46484375 C15.26992188 2.37783203 14.32890625 2.29082031 13.359375 2.20117188 C11.88210937 2.0706543 11.88210937 2.0706543 10.375 1.9375 C9.38242187 1.84662109 8.38984375 1.75574219 7.3671875 1.66210938 C4.91176132 1.43781564 2.45605611 1.21726893 0 1 C0 0.67 0 0.34 0 0 Z " fill="#93A5B5" transform="translate(24,108)"/>
<path d="M0 0 C6.06121997 6.06121997 8.76521771 15.72191871 10 24 C9.67 24.99 9.34 25.98 9 27 C7.48889193 23.25438105 5.99306661 19.5028431 4.5 15.75 C4.07074219 14.68652344 3.64148438 13.62304688 3.19921875 12.52734375 C2.79316406 11.50253906 2.38710937 10.47773437 1.96875 9.421875 C1.59169922 8.47924805 1.21464844 7.53662109 0.82617188 6.56542969 C0 4 0 4 0 0 Z " fill="#6C7179" transform="translate(129,38)"/>
<path d="M0 0 C0.556875 0.309375 1.11375 0.61875 1.6875 0.9375 C4.12540433 2.05761821 6.36224186 2.56037364 9 3 C9.33 4.65 9.66 6.3 10 8 C6.04 8 2.08 8 -2 8 C-1.34 7.01 -0.68 6.02 0 5 C0.16713569 2.37468476 0.16713569 2.37468476 0 0 Z " fill="#4E4F51" transform="translate(114,149)"/>
<path d="M0 0 C2.9550731 5.27691626 4.13154132 11.06553236 5 17 C1.37 17 -2.26 17 -6 17 C-6 16.67 -6 16.34 -6 16 C-4.35 15.67 -2.7 15.34 -1 15 C-1.01160156 14.41992188 -1.02320312 13.83984375 -1.03515625 13.2421875 C-1.08762174 8.7001754 -0.91751063 4.47286431 0 0 Z " fill="#9FABB6" transform="translate(83,126)"/>
<path d="M0 0 C0.86625 0.3403125 0.86625 0.3403125 1.75 0.6875 C1.75 2.6675 1.75 4.6475 1.75 6.6875 C2.41 7.0175 3.07 7.3475 3.75 7.6875 C0.78 7.6875 -2.19 7.6875 -5.25 7.6875 C-5.58 6.0375 -5.91 4.3875 -6.25 2.6875 C-2.80384615 -0.38942308 -2.80384615 -0.38942308 0 0 Z " fill="#2C3033" transform="translate(44.25,149.3125)"/>
<path d="M0 0 C1.32 0 2.64 0 4 0 C5.49106457 2.98212913 5.11941467 5.71609658 5 9 C4 10 4 10 1.4375 10.0625 C0.633125 10.041875 -0.17125 10.02125 -1 10 C-1.125 2.25 -1.125 2.25 0 0 Z " fill="#C8D3DA" transform="translate(78,132)"/>
<path d="M0 0 C0.70189453 0.00451172 1.40378906 0.00902344 2.12695312 0.01367188 C3.85550538 0.02543073 5.58401365 0.04336546 7.3125 0.0625 C6.00954858 2.66840285 5.0133725 3.02440955 2.3125 4.0625 C-0.484375 4.2578125 -0.484375 4.2578125 -3.4375 4.1875 C-4.42234375 4.16945313 -5.4071875 4.15140625 -6.421875 4.1328125 C-7.54335938 4.09800781 -7.54335938 4.09800781 -8.6875 4.0625 C-8.6875 3.4025 -8.6875 2.7425 -8.6875 2.0625 C-9.3475 1.7325 -10.0075 1.4025 -10.6875 1.0625 C-7.06882441 -0.1437252 -3.76243749 -0.04566918 0 0 Z " fill="#424445" transform="translate(31.6875,113.9375)"/>
<path d="M0 0 C0.7940625 0.07863281 1.588125 0.15726562 2.40625 0.23828125 C4.5 0.6875 4.5 0.6875 6.5 2.6875 C9.24485593 2.83257695 11.88480543 2.87402423 14.625 2.8125 C15.75615234 2.79896484 15.75615234 2.79896484 16.91015625 2.78515625 C18.77357254 2.7615687 20.63682593 2.72569719 22.5 2.6875 C22.5 3.0175 22.5 3.3475 22.5 3.6875 C11.06908865 5.76584752 0.7195636 4.47579391 -10.5 1.6875 C-9.88125 1.543125 -9.2625 1.39875 -8.625 1.25 C-2.76617233 -0.30086615 -2.76617233 -0.30086615 0 0 Z " fill="#797F89" transform="translate(114.5,121.3125)"/>
<path d="M0 0 C2.97 0 5.94 0 9 0 C8.67 1.32 8.34 2.64 8 4 C9.01320313 3.94779297 9.01320313 3.94779297 10.046875 3.89453125 C11.38492187 3.85392578 11.38492187 3.85392578 12.75 3.8125 C13.63171875 3.77769531 14.5134375 3.74289063 15.421875 3.70703125 C18.44671583 4.05076316 19.75583602 5.00227459 22 7 C14.32226204 7.5118492 6.77834087 5.65109696 0 2 C0 1.34 0 0.68 0 0 Z " fill="#5F5D5A" transform="translate(15,114)"/>
<path d="M0 0 C2 1 2 1 2.88671875 2.9609375 C3.15097656 3.75757813 3.41523437 4.55421875 3.6875 5.375 C3.95949219 6.16648437 4.23148438 6.95796875 4.51171875 7.7734375 C5 10 5 10 4 13 C3.01 11.02 2.02 9.04 1 7 C-0.32 9.31 -1.64 11.62 -3 14 C-4.11017502 10.66947495 -3.87254667 9.25587782 -3.1875 5.875 C-3.01605469 4.98554688 -2.84460938 4.09609375 -2.66796875 3.1796875 C-2.44753906 2.46039062 -2.22710937 1.74109375 -2 1 C-1.34 0.67 -0.68 0.34 0 0 Z " fill="#656D76" transform="translate(123,22)"/>
<path d="M0 0 C3 1 3 1 4.23828125 3.015625 C5.94221646 5.34602755 5.94221646 5.34602755 9.35546875 5.609375 C10.62003906 5.65578125 11.88460937 5.7021875 13.1875 5.75 C15.09595703 5.83507812 15.09595703 5.83507812 17.04296875 5.921875 C18.01878906 5.94765625 18.99460937 5.9734375 20 6 C20 6.33 20 6.66 20 7 C13.565 7.495 13.565 7.495 7 8 C7 8.33 7 8.66 7 9 C3.37 9 -0.26 9 -4 9 C-4 8.67 -4 8.34 -4 8 C-2.02 8 -0.04 8 2 8 C2 6.68 2 5.36 2 4 C1.34 4 0.68 4 0 4 C0 2.68 0 1.36 0 0 Z " fill="#585859" transform="translate(88,137)"/>
<path d="M0 0 C5.28 0 10.56 0 16 0 C16 0.66 16 1.32 16 2 C15.01 2.99 14.02 3.98 13 5 C18.94 4.505 18.94 4.505 25 4 C25 4.66 25 5.32 25 6 C20.05 6 15.1 6 10 6 C10 4.68 10 3.36 10 2 C6.7 1.67 3.4 1.34 0 1 C0 0.67 0 0.34 0 0 Z " fill="#656B73" transform="translate(28,113)"/>
<path d="M0 0 C1.10182795 3.30548384 0.93659411 3.95728894 -0.109375 7.125 C-0.36976562 7.91390625 -0.63015625 8.7028125 -0.8984375 9.515625 C-1.17945313 10.33546875 -1.46046875 11.1553125 -1.75 12 C-2.01554687 12.81984375 -2.28109375 13.6396875 -2.5546875 14.484375 C-2.82023437 15.27328125 -3.08578125 16.0621875 -3.359375 16.875 C-3.60139648 17.59429687 -3.84341797 18.31359375 -4.09277344 19.0546875 C-5.08878216 21.19037036 -6.24949842 22.44399859 -8 24 C-6.85036663 15.06008789 -5.03263961 7.54895941 0 0 Z " fill="#6A747C" transform="translate(28,44)"/>
<path d="M0 0 C1.09726581 3.29179743 0.96382036 3.83384758 -0.14453125 6.94140625 C-0.40943359 7.68970703 -0.67433594 8.43800781 -0.94726562 9.20898438 C-1.37555664 10.37397461 -1.37555664 10.37397461 -1.8125 11.5625 C-2.08642578 12.34302734 -2.36035156 13.12355469 -2.64257812 13.92773438 C-4.73030029 19.73030029 -4.73030029 19.73030029 -7 22 C-5.9380193 13.57911778 -4.75756793 7.13635189 0 0 Z " fill="#6E777F" transform="translate(109,63)"/>
<path d="M0 0 C5.94 0 11.88 0 18 0 C18 0.99 18 1.98 18 3 C15.9377952 3.054348 13.87517184 3.09294961 11.8125 3.125 C10.66394531 3.14820312 9.51539063 3.17140625 8.33203125 3.1953125 C5.08259628 3.00484152 2.91339479 2.39360127 0 1 C0 0.67 0 0.34 0 0 Z " fill="#464446" transform="translate(120,114)"/>
<path d="M0 0 C2.64 0 5.28 0 8 0 C8.33 0.66 8.66 1.32 9 2 C8.34 2 7.68 2 7 2 C7 2.66 7 3.32 7 4 C0.07 4 -6.86 4 -14 4 C-14 3.67 -14 3.34 -14 3 C-9.38 2.67 -4.76 2.34 0 2 C0 1.34 0 0.68 0 0 Z " fill="#E7EEF2" transform="translate(83,153)"/>
<path d="M0 0 C0.66 0 1.32 0 2 0 C3.04976964 3.14930893 3.10131595 5.38814456 3.0625 8.6875 C3.05347656 9.68136719 3.04445313 10.67523438 3.03515625 11.69921875 C3.02355469 12.45847656 3.01195313 13.21773437 3 14 C2.01 13.67 1.02 13.34 0 13 C-0.33 13.66 -0.66 14.32 -1 15 C-1.18451025 4.44191344 -1.18451025 4.44191344 0 0 Z " fill="#47505A" transform="translate(79,114)"/>
<path d="M0 0 C0.66 0.66 1.32 1.32 2 2 C-4.6 2.66 -11.2 3.32 -18 4 C-18 3.01 -18 2.02 -18 1 C-11.81149141 -0.94823419 -6.39156879 -1.47314968 0 0 Z " fill="#ABB8C3" transform="translate(105,8)"/>
<path d="M0 0 C7.65606218 -0.19355213 14.66258031 -0.3479743 22 2 C22 2.66 22 3.32 22 4 C22.66 4.33 23.32 4.66 24 5 C20.01663272 4.58069818 16.41398966 4.12043335 12.5625 3 C8.38279537 1.82674958 4.31310878 1.3716511 0 1 C0 0.67 0 0.34 0 0 Z " fill="#85898E" transform="translate(94,13)"/>
<path d="M0 0 C3.125 0.1875 3.125 0.1875 6.125 2.1875 C5.125 4.1875 5.125 4.1875 2.125 6.1875 C-0.5625 6.3125 -0.5625 6.3125 -2.875 6.1875 C-3.25718767 4.53135343 -3.58895102 2.86292976 -3.875 1.1875 C-2.875 0.1875 -2.875 0.1875 0 0 Z " fill="#949CA5" transform="translate(79.875,4.8125)"/>
<path d="M0 0 C0.5165918 0.15847412 1.03318359 0.31694824 1.56542969 0.48022461 C4.71232894 1.15208066 7.73638152 1.22099437 10.953125 1.31640625 C11.94345734 1.3475779 11.94345734 1.3475779 12.95379639 1.37937927 C15.05243015 1.44450147 17.15118372 1.50358502 19.25 1.5625 C20.67709547 1.60572079 22.10417905 1.6493362 23.53125 1.69335938 C27.02070722 1.80014411 30.51029753 1.90151566 34 2 C34 2.33 34 2.66 34 3 C22.45 3 10.9 3 -1 3 C-0.67 2.01 -0.34 1.02 0 0 Z " fill="#A2A9AD" transform="translate(11,110)"/>
<path d="M0 0 C3 3 3 3 3.328125 6.36328125 C3.30234375 7.66652344 3.2765625 8.96976563 3.25 10.3125 C3.23453125 11.60800781 3.2190625 12.90351562 3.203125 14.23828125 C3.0229905 17.57423355 2.62995926 20.72319578 2 24 C1.67 23.01 1.34 22.02 1 21 C0.01 21 -0.98 21 -2 21 C-2 20.34 -2 19.68 -2 19 C-1.34 19 -0.68 19 0 19 C0 12.73 0 6.46 0 0 Z " fill="#848E99" transform="translate(81,108)"/>
<path d="M0 0 C0.33 0 0.66 0 1 0 C1.19055047 4.76376184 1.07190488 8.64899976 -1 13 C-3.078125 13.6640625 -3.078125 13.6640625 -5 14 C-4.74279326 12.41439607 -4.46861201 10.83154076 -4.1875 9.25 C-3.96126953 7.92742187 -3.96126953 7.92742187 -3.73046875 6.578125 C-2.9420543 3.79548575 -1.9128413 2.14880859 0 0 Z " fill="#78818A" transform="translate(13,85)"/>
<path d="M0 0 C1.8871875 0.0309375 1.8871875 0.0309375 3.8125 0.0625 C3.8125 1.0525 3.8125 2.0425 3.8125 3.0625 C-0.2402516 4.04498524 -4.02611737 4.14409574 -8.1875 4.0625 C-7.8575 3.0725 -7.5275 2.0825 -7.1875 1.0625 C-4.43671116 0.14557039 -2.82801087 -0.04636083 0 0 Z " fill="#8A9AAA" transform="translate(49.1875,113.9375)"/>
<path d="M0 0 C0.99 0 1.98 0 3 0 C3 0.99 3 1.98 3 3 C-0.68588344 4.68516711 -3.63939078 5.29593202 -7.6875 5.3125 C-8.64011719 5.32925781 -9.59273437 5.34601563 -10.57421875 5.36328125 C-11.77498047 5.18345703 -11.77498047 5.18345703 -13 5 C-13.66 4.01 -14.32 3.02 -15 2 C-10.05 2.33 -5.1 2.66 0 3 C0 2.01 0 1.02 0 0 Z " fill="#5E5955" transform="translate(138,114)"/>
<path d="M0 0 C1.98 0 3.96 0 6 0 C6 0.33 6 0.66 6 1 C13.59 1.33 21.18 1.66 29 2 C29 2.33 29 2.66 29 3 C24.54168018 3.02891546 20.08338431 3.04676981 15.625 3.0625 C14.35398437 3.07087891 13.08296875 3.07925781 11.7734375 3.08789062 C9.95585938 3.09272461 9.95585938 3.09272461 8.1015625 3.09765625 C6.42054443 3.10551147 6.42054443 3.10551147 4.70556641 3.11352539 C2 3 2 3 0 2 C0 1.34 0 0.68 0 0 Z " fill="#A1A5A8" transform="translate(105,110)"/>
<path d="M0 0 C1.25955231 3.77865693 0.48087189 5.03411786 -0.9375 8.6875 C-1.31777344 9.68136719 -1.69804687 10.67523438 -2.08984375 11.69921875 C-2.39019531 12.45847656 -2.69054687 13.21773437 -3 14 C-3.66 13.01 -4.32 12.02 -5 11 C-5.99 11.495 -5.99 11.495 -7 12 C-6.01 8.7 -5.02 5.4 -4 2 C-3.34 2.66 -2.68 3.32 -2 4 C-1.34 2.68 -0.68 1.36 0 0 Z " fill="#A8AFB5" transform="translate(18,76)"/>
<path d="M0 0 C3.07692057 2.76922851 4.77800007 5.02850024 6 9 C6 9.99 6 10.98 6 12 C6.66 12.33 7.32 12.66 8 13 C5.69 13.33 3.38 13.66 1 14 C1.66 13.67 2.32 13.34 3 13 C2.7834375 12.31292969 2.566875 11.62585938 2.34375 10.91796875 C2.0653125 10.01691406 1.786875 9.11585937 1.5 8.1875 C1.2215625 7.29417969 0.943125 6.40085937 0.65625 5.48046875 C0 3 0 3 0 0 Z " fill="#707278" transform="translate(149,93)"/>
<path d="M0 0 C3.63 0 7.26 0 11 0 C9.68 1.32 8.36 2.64 7 4 C7.66 4 8.32 4 9 4 C9.66 5.65 10.32 7.3 11 9 C7.125 7.25 7.125 7.25 6 5 C5.01 4.67 4.02 4.34 3 4 C3 3.34 3 2.68 3 2 C2.01 1.34 1.02 0.68 0 0 Z " fill="#687D91" transform="translate(96,108)"/>
<path d="M0 0 C0.33 0.99 0.66 1.98 1 3 C3.64 3 6.28 3 9 3 C9 3.66 9 4.32 9 5 C4.05 5 -0.9 5 -6 5 C-5.34 4.34 -4.68 3.68 -4 3 C-3.01 3 -2.02 3 -1 3 C-0.67 2.01 -0.34 1.02 0 0 Z " fill="#4B4D50" transform="translate(95,103)"/>
<path d="M0 0 C2.45605371 2.55274874 2.98802939 3.85890643 3.29296875 7.453125 C3.25816406 8.70609375 3.22335938 9.9590625 3.1875 11.25 C3.16042969 12.51328125 3.13335937 13.7765625 3.10546875 15.078125 C3.07066406 16.04234375 3.03585938 17.0065625 3 18 C1.51171875 16.98046875 1.51171875 16.98046875 0 15 C-0.2172101 12.35003674 -0.28351554 9.94923442 -0.1875 7.3125 C-0.17396484 6.61060547 -0.16042969 5.90871094 -0.14648438 5.18554688 C-0.11120182 3.45670171 -0.05739583 1.72825235 0 0 Z " fill="#929DA9" transform="translate(121,88)"/>
<path d="M0 0 C0.66 0.33 1.32 0.66 2 1 C2 1.99 2 2.98 2 4 C3.0725 3.649375 4.145 3.29875 5.25 2.9375 C9 2 9 2 13 3 C10.36 3.99 7.72 4.98 5 6 C5 6.33 5 6.66 5 7 C3.02 7 1.04 7 -1 7 C-1 6.34 -1 5.68 -1 5 C-0.34 5 0.32 5 1 5 C1 4.34 1 3.68 1 3 C0.34 3 -0.32 3 -1 3 C-0.67 2.01 -0.34 1.02 0 0 Z " fill="#7D868F" transform="translate(36,10)"/>
<path d="M0 0 C4.71403788 0.47939368 8.66579301 0.96834048 13 3 C13 3.66 13 4.32 13 5 C8.13103697 4.40380045 3.67209049 3.43023178 -1 2 C-0.67 1.34 -0.34 0.68 0 0 Z " fill="#A0ACB7" transform="translate(109,9)"/>
<path d="M0 0 C2.64 0 5.28 0 8 0 C8 1.32 8 2.64 8 4 C5.36 4 2.72 4 0 4 C0 2.68 0 1.36 0 0 Z " fill="#B0C8DE" transform="translate(76,13)"/>
<path d="M0 0 C1.65 0 3.3 0 5 0 C5.33 0.66 5.66 1.32 6 2 C5.01 3.485 5.01 3.485 4 5 C0.875 5.1875 0.875 5.1875 -2 5 C-1.34 3.35 -0.68 1.7 0 0 Z " fill="#3D4958" transform="translate(57,116)"/>
<path d="M0 0 C1.22589844 0.01353516 1.22589844 0.01353516 2.4765625 0.02734375 C3.41628906 0.04474609 3.41628906 0.04474609 4.375 0.0625 C3.385 0.7225 2.395 1.3825 1.375 2.0625 C2.035 2.7225 2.695 3.3825 3.375 4.0625 C0.075 4.0625 -3.225 4.0625 -6.625 4.0625 C-6.625 3.0725 -6.625 2.0825 -6.625 1.0625 C-4.21954362 -0.14022819 -2.67503047 -0.03821472 0 0 Z " fill="#6C6967" transform="translate(129.625,118.9375)"/>
<path d="M0 0 C1.15006091 3.37299744 0.85199953 5.34853215 -0.3125 8.6875 C-0.57675781 9.47511719 -0.84101562 10.26273438 -1.11328125 11.07421875 C-2 13 -2 13 -4 14 C-3.71831703 12.04020573 -3.42433283 10.08217622 -3.125 8.125 C-2.96257812 7.03445312 -2.80015625 5.94390625 -2.6328125 4.8203125 C-2 2 -2 2 0 0 Z " fill="#646D75" transform="translate(100,88)"/>
<path d="M0 0 C1.90747183 2.86120775 3.00353706 5.35254993 4.1875 8.5625 C4.55230469 9.53316406 4.91710937 10.50382812 5.29296875 11.50390625 C6 14 6 14 5 16 C4.34 14.68 3.68 13.36 3 12 C2.34 12.66 1.68 13.32 1 14 C0.83081732 12.41693353 0.66476064 10.83353281 0.5 9.25 C0.4071875 8.36828125 0.314375 7.4865625 0.21875 6.578125 C0 4 0 4 0 0 Z " fill="#A0A1A4" transform="translate(127,28)"/>
<path d="M0 0 C0 0.33 0 0.66 0 1 C1.65 1.33 3.3 1.66 5 2 C5 2.33 5 2.66 5 3 C0.38 3.33 -4.24 3.66 -9 4 C-8.67 3.01 -8.34 2.02 -8 1 C-5.29120665 -0.35439668 -2.99066732 -0.06501451 0 0 Z " fill="#393939" transform="translate(52,144)"/>
<path d="M0 0 C0.99 0 1.98 0 3 0 C3.95024979 3.69541586 3.95024979 6.30458414 3 10 C2.67 9.34 2.34 8.68 2 8 C1.34 8 0.68 8 0 8 C0 5.36 0 2.72 0 0 Z " fill="#92A5B7" transform="translate(35,70)"/>
<path d="M0 0 C2 3 2 3 2 5 C4.97 4.34 7.94 3.68 11 3 C10.34 4.32 9.68 5.64 9 7 C6.69 6.67 4.38 6.34 2 6 C2 7.98 2 9.96 2 12 C1.67 12 1.34 12 1 12 C0.855625 10.88625 0.71125 9.7725 0.5625 8.625 C0.21627965 5.17857953 0.21627965 5.17857953 -1 3 C-0.67 2.01 -0.34 1.02 0 0 Z " fill="#8B9BAA" transform="translate(75,14)"/>
<path d="M0 0 C2.33944736 0.28730055 4.6739143 0.61936779 7 1 C1.75571585 3.96732013 -4.21863872 4.38939058 -10.125 3.5625 C-10.74375 3.376875 -11.3625 3.19125 -12 3 C-12 2.67 -12 2.34 -12 2 C-11.21753906 1.93941406 -10.43507812 1.87882812 -9.62890625 1.81640625 C-8.61699219 1.73261719 -7.60507812 1.64882812 -6.5625 1.5625 C-5.55316406 1.48128906 -4.54382812 1.40007812 -3.50390625 1.31640625 C-1.06359221 1.26788532 -1.06359221 1.26788532 0 0 Z " fill="#646E7B" transform="translate(46,122)"/>
<path d="M0 0 C-0.50797009 4.3177458 -1.19682779 8.03302114 -3 12 C-3.33 12 -3.66 12 -4 12 C-4.125 4.375 -4.125 4.375 -3 1 C-1 0 -1 0 0 0 Z " fill="#6D7780" transform="translate(19,71)"/>
<path d="M0 0 C1.98 0 3.96 0 6 0 C5.01 0.495 5.01 0.495 4 1 C4.7763932 4.0745356 4.7763932 4.0745356 7 6 C4.03 5.505 4.03 5.505 1 5 C0.67 3.35 0.34 1.7 0 0 Z " fill="#9BAEBC" transform="translate(54,151)"/>
<path d="M0 0 C1.37478516 0.01740234 1.37478516 0.01740234 2.77734375 0.03515625 C3.69644531 0.04417969 4.61554687 0.05320313 5.5625 0.0625 C6.27277344 0.07410156 6.98304687 0.08570313 7.71484375 0.09765625 C7.71484375 0.42765625 7.71484375 0.75765625 7.71484375 1.09765625 C5.07484375 1.09765625 2.43484375 1.09765625 -0.28515625 1.09765625 C0.28829312 3.96490311 0.57629525 4.95910775 2.71484375 7.09765625 C1.39484375 7.09765625 0.07484375 7.09765625 -1.28515625 7.09765625 C-1.94515625 5.11765625 -2.60515625 3.13765625 -3.28515625 1.09765625 C-2.28515625 0.09765625 -2.28515625 0.09765625 0 0 Z " fill="#85929D" transform="translate(54.28515625,149.90234375)"/>
<path d="M0 0 C0.66 0.33 1.32 0.66 2 1 C2 2.98 2 4.96 2 7 C0.02 7 -1.96 7 -4 7 C-2.79618552 4.50638429 -1.54571278 2.31856917 0 0 Z " fill="#3D4043" transform="translate(44,149)"/>
<path d="M0 0 C2 4 2 4 3 7 C2.01 7.33 1.02 7.66 0 8 C-1.20882096 10.00016466 -1.20882096 10.00016466 -2 12 C-2.99 11.67 -3.98 11.34 -5 11 C-4.34 11 -3.68 11 -3 11 C-2.01 7.37 -1.02 3.74 0 0 Z " fill="#9DA1A5" transform="translate(8,94)"/>
<path d="M0 0 C3.12270126 2.51830747 3.94523098 3.7261549 4.75 7.75 C4.8325 8.8225 4.915 9.895 5 11 C4.01 11.495 4.01 11.495 3 12 C2.49440092 10.56445975 1.9957251 9.1264798 1.5 7.6875 C1.2215625 6.88699219 0.943125 6.08648437 0.65625 5.26171875 C0 3 0 3 0 0 Z " fill="#6A6F78" transform="translate(54,74)"/>
<path d="M0 0 C-2.96178773 1.67110042 -5.37071192 2.32682752 -8.75 2.625 C-9.54921875 2.69976563 -10.3484375 2.77453125 -11.171875 2.8515625 C-11.77515625 2.90054687 -12.3784375 2.94953125 -13 3 C-13 2.34 -13 1.68 -13 1 C-8.20862412 -0.6290678 -4.94367454 -1.20577428 0 0 Z " fill="#919498" transform="translate(50,16)"/>
<path d="M0 0 C3.96 0.33 7.92 0.66 12 1 C11.01 2.485 11.01 2.485 10 4 C7.03 3.67 4.06 3.34 1 3 C0.67 2.01 0.34 1.02 0 0 Z " fill="#ABB5BF" transform="translate(23,11)"/>
<path d="M0 0 C0.99 0 1.98 0 3 0 C3.33 2.31 3.66 4.62 4 7 C2.68 7 1.36 7 0 7 C0 4.69 0 2.38 0 0 Z " fill="#E0E4E5" transform="translate(77,134)"/>
<path d="M0 0 C0.33 0 0.66 0 1 0 C1 2.64 1 5.28 1 8 C2.32 8 3.64 8 5 8 C5 8.99 5 9.98 5 11 C3.35 11 1.7 11 0 11 C-0.84098656 6.98195309 -1.05404945 3.98196457 0 0 Z " fill="#99A0A5" transform="translate(77,121)"/>
<path d="M0 0 C0.33 0.99 0.66 1.98 1 3 C-0.28965176 4.37562854 -1.62689293 5.70766393 -3 7 C-3.66 7 -4.32 7 -5 7 C-5.33 5.35 -5.66 3.7 -6 2 C-4.02 2 -2.04 2 0 2 C0 1.34 0 0.68 0 0 Z " fill="#5E6E7E" transform="translate(159,106)"/>
<path d="M0 0 C0.99 0.33 1.98 0.66 3 1 C2.375 2.9375 2.375 2.9375 1 5 C-2.125 5.75 -2.125 5.75 -5 6 C-3.35 4.02 -1.7 2.04 0 0 Z " fill="#596879" transform="translate(151,114)"/>
<path d="M0 0 C0.99 0.33 1.98 0.66 3 1 C2.67 2.98 2.34 4.96 2 7 C3.32 7.33 4.64 7.66 6 8 C3.36 8 0.72 8 -2 8 C-1.34 7.01 -0.68 6.02 0 5 C0.16713569 2.37468476 0.16713569 2.37468476 0 0 Z " fill="#464548" transform="translate(114,149)"/>
<path d="M0 0 C0.66 0.33 1.32 0.66 2 1 C1.34 2.32 0.68 3.64 0 5 C0.99 5.33 1.98 5.66 3 6 C1.35 6.33 -0.3 6.66 -2 7 C-2.66 5.68 -3.32 4.36 -4 3 C-3.34 3 -2.68 3 -2 3 C-2 2.34 -2 1.68 -2 1 C-1.34 0.67 -0.68 0.34 0 0 Z " fill="#575D66" transform="translate(55,116)"/>
<path d="M0 0 C3.3 0.33 6.6 0.66 10 1 C10 1.66 10 2.32 10 3 C6.6875 3.1875 6.6875 3.1875 3 3 C2.01 2.01 1.02 1.02 0 0 Z " fill="#99AAB9" transform="translate(107,114)"/>
<path d="M0 0 C0.99 0.33 1.98 0.66 3 1 C2.75 2.875 2.75 2.875 2 5 C0.1875 6.3125 0.1875 6.3125 -2 7 C-4.25 6.625 -4.25 6.625 -6 6 C-4.02 5.01 -2.04 4.02 0 3 C0 2.01 0 1.02 0 0 Z " fill="#737682" transform="translate(108,150)"/>
<path d="M0 0 C2 2 2 2 2 6 C-1.63 6 -5.26 6 -9 6 C-9 5.67 -9 5.34 -9 5 C-4.545 4.505 -4.545 4.505 0 4 C0 2.68 0 1.36 0 0 Z " fill="#8697A7" transform="translate(86,137)"/>
<path d="M0 0 C0.33 0 0.66 0 1 0 C1.33 2.31 1.66 4.62 2 7 C2.33 7 2.66 7 3 7 C3 9.31 3 11.62 3 14 C0.19954377 10.85408067 -0.35261589 8.932936 -0.1875 4.75 C-0.16042969 3.85796875 -0.13335937 2.9659375 -0.10546875 2.046875 C-0.07066406 1.37140625 -0.03585938 0.6959375 0 0 Z " fill="#8B96A0" transform="translate(76,101)"/>
<path d="M0 0 C0.598125 0.309375 1.19625 0.61875 1.8125 0.9375 C4.08956772 2.10209704 4.08956772 2.10209704 7 3 C7 3.66 7 4.32 7 5 C4.03 4.67 1.06 4.34 -2 4 C-1.34 3.67 -0.68 3.34 0 3 C0 2.01 0 1.02 0 0 Z " fill="#454749" transform="translate(64,103)"/>
<path d="M0 0 C-0.99 0.33 -1.98 0.66 -3 1 C-3 1.66 -3 2.32 -3 3 C-5.31 3.33 -7.62 3.66 -10 4 C-10 3.34 -10 2.68 -10 2 C-6.49223216 0.39644899 -3.85645121 -0.22036864 0 0 Z " fill="#A1ADB8" transform="translate(48,10)"/>
<path d="M0 0 C2.97 0.495 2.97 0.495 6 1 C5.67 1.99 5.34 2.98 5 4 C3.02 4.33 1.04 4.66 -1 5 C-0.01 3.68 0.98 2.36 2 1 C1.34 0.67 0.68 0.34 0 0 Z " fill="#B3C9DD" transform="translate(93,152)"/>
<path d="M0 0 C0.66 0 1.32 0 2 0 C1.67 2.97 1.34 5.94 1 9 C0.01 8.34 -0.98 7.68 -2 7 C-1.34 4.69 -0.68 2.38 0 0 Z " fill="#71777D" transform="translate(73,129)"/>
<path d="M0 0 C0.33 0 0.66 0 1 0 C1 1.65 1 3.3 1 5 C1.99 5 2.98 5 4 5 C3.67 6.32 3.34 7.64 3 9 C2.34 8.67 1.68 8.34 1 8 C0.67 8.66 0.34 9.32 0 10 C0 6.7 0 3.4 0 0 Z " fill="#63676B" transform="translate(78,119)"/>
<path d="M0 0 C4.5 3 4.5 3 9 6 C6.03 5.67 3.06 5.34 0 5 C0 3.35 0 1.7 0 0 Z " fill="#37414E" transform="translate(104,117)"/>
<path d="M0 0 C1.4800841 0.11362262 2.95910074 0.24122908 4.4375 0.375 C5.26121094 0.44460937 6.08492188 0.51421875 6.93359375 0.5859375 C7.95646484 0.79089844 7.95646484 0.79089844 9 1 C9.33 1.66 9.66 2.32 10 3 C7.69 3 5.38 3 3 3 C3.66 3.66 4.32 4.32 5 5 C3.68 4.67 2.36 4.34 1 4 C0.67 2.68 0.34 1.36 0 0 Z " fill="#8797A4" transform="translate(105,112)"/>
<path d="M0 0 C0.33 0 0.66 0 1 0 C1 2.31 1 4.62 1 7 C-0.65 7.66 -2.3 8.32 -4 9 C-3.67 7.35 -3.34 5.7 -3 4 C-2.34 4 -1.68 4 -1 4 C-0.67 2.68 -0.34 1.36 0 0 Z " fill="#818991" transform="translate(111,57)"/>
<path d="M0 0 C0.33 1.98 0.66 3.96 1 6 C-0.65 6 -2.3 6 -4 6 C-3.34 5.67 -2.68 5.34 -2 5 C-2.99 4.34 -3.98 3.68 -5 3 C-1.125 0 -1.125 0 0 0 Z " fill="#53575B" transform="translate(71,139)"/>
<path d="M0 0 C5.53846154 0.61538462 5.53846154 0.61538462 7.875 2.5625 C8.431875 3.2740625 8.431875 3.2740625 9 4 C8.01 4.495 8.01 4.495 7 5 C4.5249829 3.88568235 2.32116581 2.41849022 0 1 C0 0.67 0 0.34 0 0 Z " fill="#586270" transform="translate(95,117)"/>
<path d="M0 0 C1.04973814 4.19895255 0.72795155 6.79405774 0 11 C-0.99 11 -1.98 11 -3 11 C-2.01 7.37 -1.02 3.74 0 0 Z " fill="#95999D" transform="translate(102,78)"/>
<path d="M0 0 C2.0343459 1.41519715 2.90410393 2.54982123 3.421875 4.98046875 C3.66273952 6.98176954 3.83532741 8.9909944 4 11 C2 10 2 10 0.875 7.1875 C0 4 0 4 0 0 Z " fill="#565F6A" transform="translate(50,62)"/>
<path d="M0 0 C1.98 0.66 3.96 1.32 6 2 C5.67 2.99 5.34 3.98 5 5 C3.35 5 1.7 5 0 5 C-0.5625 3.0625 -0.5625 3.0625 -1 1 C-0.67 0.67 -0.34 0.34 0 0 Z " fill="#A0A7AD" transform="translate(123,10)"/>
<path d="M0 0 C0.66 0.33 1.32 0.66 2 1 C2.625 4.0625 2.625 4.0625 3 7 C1.68 7 0.36 7 -1 7 C-0.67 4.69 -0.34 2.38 0 0 Z " fill="#99A6B1" transform="translate(74,135)"/>
<path d="M0 0 C0.33 0 0.66 0 1 0 C2.42857143 8.57142857 2.42857143 8.57142857 0 12 C-1.16063604 7.74433453 -0.76173392 4.3164922 0 0 Z " fill="#848A8F" transform="translate(75,118)"/>
<path d="M0 0 C0.66 1.32 1.32 2.64 2 4 C1.01 5.485 1.01 5.485 0 7 C-1.32 6.34 -2.64 5.68 -4 5 C-3.67 4.34 -3.34 3.68 -3 3 C-2.01 3 -1.02 3 0 3 C0 2.01 0 1.02 0 0 Z " fill="#687685" transform="translate(14,114)"/>
<path d="M0 0 C0.556875 0.144375 1.11375 0.28875 1.6875 0.4375 C4.11384195 1.02769128 6.54906345 1.523429 9 2 C9 2.33 9 2.66 9 3 C5.7 3 2.4 3 -1 3 C-0.67 2.01 -0.34 1.02 0 0 Z " fill="#7D97B1" transform="translate(11,110)"/>
<path d="M0 0 C5.41538462 -0.36923077 5.41538462 -0.36923077 8.375 1.5 C8.91125 1.995 9.4475 2.49 10 3 C2.25 3.125 2.25 3.125 0 2 C0 1.34 0 0.68 0 0 Z " fill="#9DB3C1" transform="translate(105,110)"/>
<path d="M0 0 C3.08089673 2.77280706 4.68775452 5.06326356 6 9 C3.525 8.01 3.525 8.01 1 7 C0.67 4.69 0.34 2.38 0 0 Z " fill="#7A7C82" transform="translate(62,97)"/>
<path d="M0 0 C0.33 0 0.66 0 1 0 C1.24954005 1.43410368 1.47392642 2.87260072 1.6875 4.3125 C1.87892578 5.51326172 1.87892578 5.51326172 2.07421875 6.73828125 C2 9 2 9 0.51953125 10.79296875 C0.01808594 11.19128906 -0.48335937 11.58960937 -1 12 C-1.08159574 7.83861737 -0.98248524 4.0527516 0 0 Z " fill="#77838D" transform="translate(37,94)"/>
<path d="M0 0 C1.65 0.33 3.3 0.66 5 1 C4.34 2.32 3.68 3.64 3 5 C1.68 4.67 0.36 4.34 -1 4 C-0.01 3.01 0.98 2.02 2 1 C1.34 0.67 0.68 0.34 0 0 Z " fill="#9CB0C6" transform="translate(97,152)"/>
<path d="M0 0 C2.475 0.99 2.475 0.99 5 2 C5 2.33 5 2.66 5 3 C3.88625 3.309375 2.7725 3.61875 1.625 3.9375 C-1.7945155 4.82326483 -1.7945155 4.82326483 -4 6 C-2.84826645 3.53199953 -1.95216435 1.95216435 0 0 Z " fill="#626263" transform="translate(42,146)"/>
<path d="M0 0 C0.66 0.33 1.32 0.66 2 1 C1.67 1.66 1.34 2.32 1 3 C1.99 3.33 2.98 3.66 4 4 C1.69 4 -0.62 4 -3 4 C-3 3.01 -3 2.02 -3 1 C-2.01 0.67 -1.02 0.34 0 0 Z " fill="#536C85" transform="translate(98,109)"/>
<path d="" fill="#FF0000" transform="translate(0,0)"/>
<path d="" fill="#FF0000" transform="translate(0,0)"/>
</svg>
